<svg width="42" height="22" viewBox="0 0 42 22" fill="none" xmlns="http://www.w3.org/2000/svg">
<path d="M41.5494 0H0V22H41.5494V14.7392C41.7116 14.6148 41.8 14.4516 41.8 14.2572C41.8 14.0318 41.7116 13.8919 41.5494 13.7753" fill="#006FCF"/>
<path d="M3.74372 7.08174L2.94781 5.13206L2.1519 7.08174H3.74372ZM21.3569 6.31368C21.1948 6.41707 21.0032 6.41708 20.7821 6.41708H19.3671V5.32407H20.8116C21.0179 5.32407 21.2243 5.33884 21.3717 5.41269C21.519 5.48654 21.6222 5.63425 21.6222 5.84103C21.5927 6.06259 21.5043 6.22506 21.3569 6.31368ZM31.4827 7.08174L30.672 5.13206L29.8614 7.08174H31.4827ZM12.6166 9.20867H11.4228V5.36838L9.72779 9.20867H8.69605L7.00106 5.36838V9.20867H4.61333L4.17116 8.11566H1.73921L1.2823 9.20867H0.0147391L2.10769 4.30492H3.8469L5.82193 8.9428V4.30492H7.72327L9.25614 7.62824L10.6563 4.30492H12.6019L12.6166 9.20867ZM17.3774 9.20867H13.4862V4.30492H17.3921V5.32407H14.6506V6.21029H17.3184V7.21467H14.6506V8.18951H17.3774V9.20867ZM22.8898 5.61948C22.8898 6.4023 22.3739 6.8011 22.0644 6.91927C22.315 7.02266 22.536 7.18513 22.6392 7.33283C22.8013 7.56916 22.8308 7.79071 22.8308 8.23382V9.19389H21.6517V8.57354C21.6517 8.27814 21.6812 7.8498 21.4601 7.61347C21.2832 7.43623 21.0327 7.40669 20.6052 7.40669H19.3524V9.19389H18.188V4.29015H20.8705C21.4748 4.29015 21.9023 4.30492 22.2855 4.52647C22.6687 4.7628 22.8898 5.07298 22.8898 5.61948ZM24.7469 9.20867H23.553V4.30492H24.7469V9.20867ZM38.5869 9.20867H36.9361L34.7253 5.53086V9.20867H32.3523L31.8953 8.11566H29.4634L29.0212 9.20867H27.6505C27.0757 9.20867 26.3682 9.07573 25.9555 8.66216C25.5428 8.2486 25.3365 7.68732 25.3365 6.78633C25.3365 6.06259 25.4691 5.39792 25.9702 4.86619C26.3535 4.48216 26.943 4.29015 27.7389 4.29015H28.8738V5.33884H27.7684C27.341 5.33884 27.1052 5.39792 26.8693 5.63425C26.663 5.84103 26.5303 6.22506 26.5303 6.74202C26.5303 7.27375 26.6335 7.64301 26.8546 7.89411C27.0315 8.08612 27.3557 8.1452 27.6652 8.1452H28.1958L29.8466 4.29015H31.6006L33.5756 8.92803V4.29015H35.359L37.4078 7.70209V4.29015H38.6016L38.5869 9.20867ZM0 10.1687H1.98977L2.44669 9.07573H3.44894L3.89111 10.1687H7.81171V9.3416L8.16545 10.1835H10.1994L10.5532 9.3416V10.1835H20.3104V8.3963H20.502C20.6347 8.3963 20.6789 8.41107 20.6789 8.63262V10.1835H25.7197V9.76994C26.1324 9.99149 26.7662 10.1835 27.5915 10.1835H29.714L30.1709 9.0905H31.1731L31.6153 10.1835H35.7128V9.14958L36.3318 10.1835H39.6039V3.33008H36.3613V4.14245L35.9044 3.33008H32.5733V4.14245L32.1607 3.33008H27.6652C26.9135 3.33008 26.2503 3.43347 25.7197 3.72888V3.33008H22.6097V3.72888C22.2707 3.43347 21.7991 3.33008 21.298 3.33008H9.96361L9.21192 5.10252L8.43075 3.33008H4.84915V4.14245L4.46594 3.33008H1.41495L0 6.57955V10.1687Z" fill="white"/>
<path d="M41.5494 13.7696H39.4269C39.2206 13.7696 39.0732 13.7844 38.9553 13.8582C38.8374 13.9321 38.7784 14.0503 38.7784 14.2127C38.7784 14.4048 38.8816 14.5229 39.029 14.582C39.1469 14.6263 39.2795 14.6411 39.4859 14.6411L40.1197 14.6558C40.7535 14.6706 41.1809 14.7888 41.4462 15.0546C41.4904 15.099 41.5199 15.1285 41.5494 15.1728V13.7696ZM41.5494 17.0043C41.2693 17.4179 40.7092 17.6247 39.9575 17.6247H37.7025V16.576H39.9428C40.1639 16.576 40.326 16.5464 40.4145 16.4578C40.5029 16.384 40.5471 16.2658 40.5471 16.1329C40.5471 15.9852 40.4882 15.8818 40.3997 15.8079C40.3113 15.7341 40.1934 15.7045 39.987 15.7045C38.8963 15.6602 37.5256 15.7341 37.5256 14.1832C37.5256 13.4742 37.9825 12.7209 39.2059 12.7209H41.5346V11.7461H39.368C38.7195 11.7461 38.2478 11.9086 37.9088 12.1449V11.7461H34.7104C34.1946 11.7461 33.605 11.879 33.3102 12.1449V11.7461H27.6062V12.1449C27.1493 11.8199 26.3829 11.7461 26.0291 11.7461H22.2559V12.1449C21.9022 11.7904 21.0915 11.7461 20.6052 11.7461H16.3898L15.4317 12.7948L14.5327 11.7461H8.26855V18.5848H14.4442L15.4317 17.5213L16.375 18.5848H20.1777V16.9748H20.5462C21.0473 16.9896 21.6516 16.96 22.1675 16.7385V18.5848H25.3069V16.7975H25.4543C25.6459 16.7975 25.6607 16.8123 25.6607 17.0043V18.5848H35.2263C35.8306 18.5848 36.4644 18.4223 36.8181 18.1416V18.5848H39.8396C40.4734 18.5848 41.0777 18.4961 41.5494 18.2746V17.0043ZM36.8918 15.0399C37.1129 15.2762 37.2456 15.5716 37.2456 16.0738C37.2456 17.1225 36.5823 17.6247 35.4179 17.6247H33.1481V16.576H35.4179C35.639 16.576 35.8011 16.5464 35.8896 16.4578C35.9633 16.384 36.0222 16.2658 36.0222 16.1329C36.0222 15.9852 35.9633 15.8818 35.8748 15.8079C35.7864 15.7341 35.6685 15.7045 35.4621 15.7045C34.3714 15.6602 33.0007 15.7341 33.0007 14.1832C33.0007 13.4742 33.4429 12.7209 34.6662 12.7209H37.0097V13.7696H34.8726C34.6662 13.7696 34.5188 13.7844 34.4009 13.8582C34.2683 13.9321 34.2241 14.0503 34.2241 14.2127C34.2241 14.4048 34.3272 14.5229 34.4746 14.582C34.5925 14.6263 34.7252 14.6411 34.9315 14.6411L35.5653 14.6558C36.1991 14.6706 36.6265 14.774 36.8918 15.0399ZM26.3534 14.7445C26.1913 14.8331 25.9997 14.8479 25.7786 14.8479H24.3636V13.7549H25.808C26.0144 13.7549 26.2207 13.7549 26.3681 13.8435C26.5155 13.9173 26.604 14.0798 26.604 14.2866C26.604 14.4934 26.5155 14.6558 26.3534 14.7445ZM27.0609 15.35C27.3262 15.4534 27.5325 15.6159 27.6357 15.7636C27.7978 15.9999 27.8273 16.2215 27.8273 16.6646V17.6394H26.6482V17.0339C26.6482 16.7385 26.6776 16.3101 26.4566 16.0738C26.2797 15.8966 26.0291 15.8522 25.6017 15.8522H24.3489V17.6394H23.1698V12.7357H25.867C26.4566 12.7357 26.884 12.7652 27.2672 12.972C27.6357 13.1936 27.8715 13.5038 27.8715 14.065C27.8863 14.8331 27.3704 15.2319 27.0609 15.35ZM28.5348 12.7357H32.4259V13.7549H29.6844V14.6411H32.3522V15.6455H29.6844V16.6203H32.4259V17.6394H28.5348V12.7357ZM20.6641 14.9956H19.1607V13.7549H20.6788C21.1063 13.7549 21.3863 13.9321 21.3863 14.3604C21.3863 14.774 21.1063 14.9956 20.6641 14.9956ZM17.9816 17.1816L16.1834 15.1876L17.9816 13.2527V17.1816ZM13.3535 16.6055H10.4794V15.6307H13.044V14.6263H10.4794V13.7401H13.4125L14.6948 15.1728L13.3535 16.6055ZM22.6391 14.3457C22.6391 15.7045 21.6221 15.9852 20.6052 15.9852H19.146V17.6247H16.8762L15.4317 15.9999L13.9431 17.6247H9.31503V12.7209H14.0168L15.4612 14.3309L16.9499 12.7209H20.6788C21.5927 12.7357 22.6391 12.9868 22.6391 14.3457Z" fill="white"/>
</svg>
