<svg width="82" height="22" viewBox="0 0 82 22" fill="none" xmlns="http://www.w3.org/2000/svg">
<path d="M16.3894 21.996C22.131 22.0251 27.3685 17.3168 27.3685 11.5877C27.3685 5.32523 22.1269 0.996094 16.3894 0.996094H11.4478C5.63949 0.996094 0.860352 5.32523 0.860352 11.5877C0.860352 17.3168 5.63949 22.0251 11.4478 21.996H16.3894Z" fill="#0079BE"/>
<path d="M11.4725 1.86133C6.16423 1.86133 1.86426 6.16547 1.86426 11.4738C1.86426 16.7821 6.16423 21.082 11.4725 21.0862C16.7808 21.0862 21.085 16.7821 21.085 11.4738C21.085 6.16547 16.7808 1.86549 11.4725 1.86133ZM5.3809 11.4779C5.38507 8.88212 7.00589 6.66963 9.28921 5.79047V17.1612C7.00589 16.2821 5.38507 14.0696 5.3809 11.4779ZM13.6517 17.1654V5.79047C15.9392 6.66963 17.56 8.88212 17.5642 11.4779C17.56 14.0737 15.9392 16.2862 13.6517 17.1654Z" fill="white"/>
<path d="M30.7349 5.5121C30.7349 4.52044 30.2183 4.58294 29.7183 4.57461V4.28711C30.1474 4.30794 30.5891 4.30794 31.0224 4.30794C31.4849 4.30794 32.1141 4.28711 32.9349 4.28711C35.7932 4.28711 37.3515 6.19543 37.3515 8.15375C37.3515 9.24541 36.7099 11.9954 32.8016 11.9954C32.2391 11.9954 31.7183 11.9746 31.2016 11.9746C30.7058 11.9746 30.2183 11.9871 29.7224 11.9954V11.7079C30.3849 11.6412 30.7058 11.6204 30.7391 10.8662L30.7349 5.5121ZM31.8141 10.6954C31.8141 11.5454 32.4224 11.6454 32.9641 11.6454C35.3516 11.6454 36.1349 9.84541 36.1349 8.19958C36.1349 6.13293 34.8099 4.64544 32.6807 4.64544C32.2266 4.64544 32.0182 4.67877 31.8182 4.69127L31.8141 10.6954Z" fill="#211E1F"/>
<path d="M37.7356 11.7118H37.9439C38.2523 11.7118 38.4731 11.7118 38.4731 11.3451V8.35349C38.4731 7.87016 38.3064 7.79933 37.8981 7.58266V7.40766C38.4189 7.25349 39.0356 7.04516 39.0773 7.01183C39.1564 6.966 39.2231 6.95766 39.2773 6.95766C39.3314 6.95766 39.3564 7.02433 39.3564 7.11183V11.3535C39.3564 11.7201 39.5981 11.7201 39.9064 11.7201H40.0939V12.0076C39.7189 12.0076 39.3314 11.9868 38.9356 11.9868C38.5398 11.9868 38.1398 11.9993 37.7314 12.0076L37.7356 11.7118ZM38.9189 5.24934C38.6314 5.24934 38.3773 4.98268 38.3773 4.69935C38.3773 4.42435 38.6439 4.16602 38.9189 4.16602C39.2064 4.16602 39.4606 4.39935 39.4606 4.69935C39.4606 4.99518 39.2148 5.24934 38.9189 5.24934Z" fill="#211E1F"/>
<path d="M41.1478 8.41809C41.1478 8.00976 41.027 7.90142 40.5062 7.68893V7.48059C40.9812 7.32643 41.4312 7.1806 41.9645 6.95143C41.9978 6.95143 42.0312 6.97227 42.0312 7.05976V7.77642C42.6603 7.32226 43.202 6.94727 43.9437 6.94727C44.8812 6.94727 45.2103 7.63059 45.2103 8.49308V11.3431C45.2103 11.7097 45.452 11.7097 45.7645 11.7097H45.9645V11.9972C45.577 11.9972 45.1895 11.9764 44.7937 11.9764C44.3937 11.9764 43.9978 11.9889 43.602 11.9972V11.7097H43.802C44.1103 11.7097 44.3312 11.7097 44.3312 11.3431V8.48475C44.3312 7.85559 43.9478 7.54726 43.3145 7.54726C42.9603 7.54726 42.3978 7.83476 42.0312 8.07642V11.3431C42.0312 11.7097 42.277 11.7097 42.5853 11.7097H42.7853V11.9972C42.3978 11.9972 42.0103 11.9764 41.6145 11.9764C41.2187 11.9764 40.8187 11.9889 40.4229 11.9972V11.7097H40.6228C40.9312 11.7097 41.152 11.7097 41.152 11.3431L41.1478 8.41809Z" fill="#211E1F"/>
<path d="M46.8018 8.95142C46.7768 9.05142 46.7768 9.21809 46.8018 9.59309C46.8684 10.6431 47.5434 11.5014 48.4226 11.5014C49.0309 11.5014 49.5059 11.1722 49.9143 10.7598L50.0684 10.9139C49.5601 11.5889 48.9309 12.1597 48.0268 12.1597C46.2685 12.1597 45.9185 10.4598 45.9185 9.75142C45.9185 7.58476 47.3768 6.94727 48.1476 6.94727C49.0434 6.94727 50.0059 7.50976 50.0143 8.68059C50.0143 8.74726 50.0143 8.81392 50.0059 8.88059L49.9059 8.94726H46.8018V8.95142ZM48.7559 8.59726C49.0309 8.59726 49.0643 8.45559 49.0643 8.32226C49.0643 7.75976 48.7226 7.3056 48.1018 7.3056C47.4268 7.3056 46.9643 7.80143 46.831 8.59726H48.7559Z" fill="#211E1F"/>
<path d="M50.2686 11.7117H50.5686C50.8769 11.7117 51.0977 11.7117 51.0977 11.345V8.24088C51.0977 7.89921 50.6894 7.83255 50.5227 7.74505V7.57838C51.3269 7.23672 51.7727 6.94922 51.8727 6.94922C51.9394 6.94922 51.9685 6.98255 51.9685 7.09505V8.09088H51.9935C52.2685 7.66171 52.7352 6.95339 53.406 6.95339C53.681 6.95339 54.0352 7.14088 54.0352 7.54088C54.0352 7.84088 53.8269 8.10338 53.5185 8.10338C53.1769 8.10338 53.1769 7.83671 52.7894 7.83671C52.6019 7.83671 51.9852 8.09088 51.9852 8.75337V11.3492C51.9852 11.7159 52.206 11.7159 52.5144 11.7159H53.131V12.0034C52.5227 11.9909 52.0602 11.9825 51.5852 11.9825C51.131 11.9825 50.6686 11.995 50.2727 12.0034L50.2686 11.7117Z" fill="#211E1F"/>
<path d="M54.5223 10.4614C54.6681 11.1906 55.1056 11.8114 55.9139 11.8114C56.5639 11.8114 56.8056 11.4156 56.8056 11.0281C56.8056 9.72394 54.3973 10.1448 54.3973 8.36562C54.3973 7.74479 54.8931 6.95312 56.1098 6.95312C56.4639 6.95312 56.9389 7.05312 57.3681 7.27396L57.4472 8.39895H57.1931C57.0847 7.70312 56.6972 7.30729 55.9889 7.30729C55.5473 7.30729 55.1264 7.56145 55.1264 8.03645C55.1264 9.32811 57.6889 8.93228 57.6889 10.6656C57.6889 11.3948 57.1014 12.1698 55.7889 12.1698C55.3473 12.1698 54.8264 12.0156 54.4431 11.7948L54.3223 10.5239L54.5223 10.4614Z" fill="#211E1F"/>
<path d="M67.6597 6.28775H67.3847C67.1764 4.99609 66.2597 4.47526 65.0222 4.47526C63.7514 4.47526 61.9056 5.32525 61.9056 7.97524C61.9056 10.2086 63.4972 11.8085 65.1972 11.8085C66.2889 11.8085 67.1972 11.0585 67.4181 9.89606L67.6722 9.96272L67.4181 11.5752C66.9556 11.8627 65.7056 12.1627 64.9764 12.1627C62.3931 12.1627 60.7598 10.4961 60.7598 8.00857C60.7598 5.74608 62.7806 4.12109 64.9431 4.12109C65.8389 4.12109 66.6972 4.40859 67.5472 4.70859L67.6597 6.28775Z" fill="#211E1F"/>
<path d="M68.0596 11.7105H68.2679C68.5762 11.7105 68.8012 11.7105 68.8012 11.3438V5.19387C68.8012 4.47721 68.6346 4.45221 68.2137 4.33138V4.15638C68.6554 4.01471 69.1179 3.81471 69.3512 3.68138C69.4721 3.61471 69.5596 3.56055 69.5929 3.56055C69.6596 3.56055 69.6846 3.62721 69.6846 3.71471V11.3438C69.6846 11.7105 69.9262 11.7105 70.2346 11.7105H70.4221V11.998C70.0471 11.998 69.6637 11.9772 69.2637 11.9772C68.8679 11.9772 68.4679 11.9897 68.0596 11.998V11.7105Z" fill="#211E1F"/>
<path d="M75.1473 11.3877C75.1473 11.5877 75.2682 11.6002 75.4557 11.6002C75.589 11.6002 75.7557 11.5877 75.8973 11.5877V11.8211C75.4223 11.8627 74.5182 12.0961 74.3057 12.1627L74.2515 12.1294V11.2377C73.589 11.7794 73.0807 12.1669 72.2974 12.1669C71.7015 12.1669 71.0849 11.7794 71.0849 10.8544V8.02525C71.0849 7.73776 71.039 7.46276 70.4224 7.40859V7.20026C70.8224 7.18776 71.7015 7.12109 71.8474 7.12109C71.9682 7.12109 71.9682 7.20026 71.9682 7.44192V10.2919C71.9682 10.6252 71.9682 11.5752 72.9265 11.5752C73.3015 11.5752 73.7973 11.2877 74.264 10.9044V7.93359C74.264 7.71276 73.7348 7.59192 73.339 7.47943V7.27943C74.3307 7.21276 74.9515 7.12526 75.0598 7.12526C75.1473 7.12526 75.1473 7.20443 75.1473 7.32526V11.3877Z" fill="#211E1F"/>
<path d="M77.3475 7.74385C77.7892 7.36886 78.385 6.94802 78.9933 6.94802C80.2767 6.94802 81.0475 8.06468 81.0475 9.26884C81.0475 10.7147 79.9892 12.1647 78.4058 12.1647C77.5892 12.1647 77.16 11.898 76.8725 11.7772L76.5434 12.0313L76.3142 11.9105C76.41 11.2605 76.4684 10.6188 76.4684 9.94384V5.19387C76.4684 4.47721 76.3017 4.45221 75.8809 4.33138V4.15638C76.3225 4.01471 76.785 3.81471 77.0184 3.68138C77.1392 3.61471 77.2267 3.56055 77.26 3.56055C77.3267 3.56055 77.3475 3.62721 77.3475 3.71471V7.74385ZM77.3475 10.748C77.3475 11.1688 77.7434 11.8772 78.485 11.8772C79.6683 11.8772 80.1642 10.7147 80.1642 9.73551C80.1642 8.54385 79.26 7.54802 78.3975 7.54802C77.9892 7.54802 77.6475 7.81469 77.3475 8.06885V10.748Z" fill="#211E1F"/>
<path d="M29.7061 18.4207H29.7894C30.0061 18.4207 30.2352 18.3915 30.2352 18.079V14.929C30.2352 14.6165 30.0061 14.5874 29.7894 14.5874H29.7061V14.4082C29.9394 14.4082 30.3019 14.4332 30.5977 14.4332C30.8977 14.4332 31.256 14.4082 31.5394 14.4082V14.5874H31.456C31.2394 14.5874 31.0102 14.6165 31.0102 14.929V18.079C31.0102 18.3915 31.2394 18.4207 31.456 18.4207H31.5394V18.604C31.2519 18.604 30.8894 18.579 30.5894 18.579C30.2936 18.579 29.9394 18.604 29.7061 18.604V18.4207Z" fill="#211E1F"/>
<path d="M31.5395 18.6247C31.2478 18.6247 30.8895 18.5997 30.5895 18.5997C30.2936 18.5997 29.9436 18.6247 29.7062 18.6247H29.6812V18.5997V18.4205V18.3955H29.7062H29.7895C30.0061 18.3914 30.2061 18.3747 30.2061 18.0789V14.9289C30.202 14.6372 30.0061 14.6164 29.7895 14.6122H29.6812V14.5872V14.3789H29.7062C29.9436 14.3789 30.302 14.4039 30.5978 14.4039C30.8978 14.4039 31.2561 14.3789 31.5395 14.3789H31.5645V14.4081V14.6122H31.5395H31.4561C31.2395 14.6164 31.0395 14.6372 31.0395 14.9289V18.0789C31.0395 18.3705 31.2395 18.3914 31.4561 18.3955H31.5686V18.4205V18.6289L31.5395 18.6247ZM31.5145 18.5747V18.4455H31.4561C31.2395 18.4455 30.9853 18.408 30.9853 18.0747V14.9247C30.9853 14.5914 31.2436 14.5539 31.4561 14.5539H31.5145V14.4247C31.2353 14.4247 30.8895 14.4497 30.5978 14.4497C30.3145 14.4497 29.9687 14.4289 29.7353 14.4247V14.5539H29.7937C30.0062 14.5539 30.2645 14.5914 30.2645 14.9247V18.0747C30.2645 18.408 30.0062 18.4455 29.7937 18.4455H29.7353V18.5747C29.9687 18.5705 30.3061 18.5497 30.5936 18.5497C30.8811 18.5497 31.2311 18.5705 31.5145 18.5747Z" fill="#211E1F"/>
<path d="M35.6685 17.4187L35.681 17.4062V15.1521C35.681 14.6604 35.3394 14.5854 35.1602 14.5854H35.0269V14.4062C35.3102 14.4062 35.5852 14.4313 35.8685 14.4313C36.1144 14.4313 36.3602 14.4062 36.6102 14.4062V14.5854H36.5185C36.2644 14.5854 35.9852 14.6312 35.9852 15.3479V18.0812C35.9852 18.2896 35.9894 18.5021 36.0227 18.6896H35.7935L32.6935 15.2437V17.7187C32.6935 18.2396 32.7935 18.4229 33.2602 18.4229H33.3602V18.6062C33.1019 18.6062 32.8435 18.5812 32.5852 18.5812C32.3144 18.5812 32.0394 18.6062 31.7686 18.6062V18.4229H31.8519C32.2644 18.4229 32.3936 18.1396 32.3936 17.6604V15.1271C32.3936 14.7896 32.1144 14.5854 31.8477 14.5854H31.7686V14.4062C31.9977 14.4062 32.2311 14.4313 32.4602 14.4313C32.6394 14.4313 32.8144 14.4062 32.9935 14.4062L35.6685 17.4187Z" fill="#211E1F"/>
<path d="M36.0145 18.7164L35.7686 18.708L32.7186 15.3081V17.7164C32.727 18.2372 32.8061 18.3872 33.2561 18.3914H33.3853V18.4164V18.6247H33.3603C33.102 18.6247 32.8395 18.5997 32.5853 18.5997C32.3145 18.5997 32.0395 18.6247 31.7687 18.6247H31.7437V18.5997V18.3914H31.7687H31.852C32.2478 18.3914 32.3603 18.133 32.3686 17.6539V15.1247C32.3686 14.8039 32.1061 14.6122 31.8478 14.6081H31.7437V14.5831V14.3789H31.7687C31.9978 14.3789 32.2353 14.3997 32.4603 14.3997C32.6395 14.3997 32.8145 14.3789 33.0145 14.3872L35.6561 17.3622V15.1539C35.652 14.6747 35.3353 14.6164 35.1603 14.6122H35.002V14.5872V14.3831H35.027C35.3103 14.3831 35.5895 14.4039 35.8686 14.4039C36.1145 14.4039 36.3603 14.3831 36.6061 14.3831H36.6311V14.4081V14.6122H36.6061H36.5145C36.2645 14.6206 36.0103 14.6414 36.0061 15.3497V18.083C36.0061 18.2914 36.0103 18.5039 36.0395 18.6872L36.0436 18.7164H36.0145ZM35.7853 18.6622H35.9853C35.9603 18.483 35.952 18.283 35.952 18.083V15.3497C35.952 14.6289 36.252 14.5622 36.5145 14.5622H36.577V14.4331C36.3395 14.4331 36.102 14.4581 35.8645 14.4581C35.5895 14.4581 35.3228 14.4372 35.052 14.4331V14.5622H35.1561C35.3395 14.5622 35.7061 14.6456 35.7061 15.1539L35.6978 17.4247L35.6853 17.4372L35.6645 17.4581L32.9936 14.4372C32.8145 14.4372 32.6395 14.4622 32.4603 14.4622C32.2395 14.4622 32.0145 14.4414 31.7978 14.4372V14.5664H31.852C32.1353 14.5664 32.4228 14.7831 32.4228 15.1331V17.6622C32.4228 18.1414 32.2895 18.4497 31.8562 18.4497H31.7978V18.5789C32.0561 18.5747 32.327 18.5539 32.5895 18.5539C32.8395 18.5539 33.0895 18.5747 33.3395 18.5789V18.4497H33.2645C32.7895 18.4497 32.6728 18.2414 32.6728 17.7206V15.1789L35.7853 18.6622ZM35.6686 17.4164L35.6895 17.3997L35.6686 17.4164ZM35.652 17.4039L35.6478 17.3956L35.652 17.4039Z" fill="#211E1F"/>
<path d="M37.5021 14.7043C37.0521 14.7043 37.0355 14.8126 36.9438 15.2501H36.7646C36.7896 15.0835 36.8188 14.9126 36.8355 14.7376C36.8605 14.571 36.873 14.4001 36.873 14.2293H37.0188C37.0688 14.4085 37.2188 14.4043 37.3813 14.4043H40.4813C40.6438 14.4043 40.7938 14.4001 40.8063 14.2168L40.948 14.2418C40.923 14.4043 40.9021 14.5668 40.8813 14.7293C40.8688 14.8918 40.8688 15.0543 40.8688 15.2168L40.6896 15.2835C40.6771 15.0626 40.648 14.7043 40.2438 14.7043H39.2563V17.9001C39.2563 18.3626 39.4688 18.4168 39.7521 18.4168H39.8688V18.6001C39.6355 18.6001 39.2146 18.5751 38.8896 18.5751C38.5313 18.5751 38.1063 18.6001 37.873 18.6001V18.4168H37.9896C38.323 18.4168 38.4896 18.3876 38.4896 17.9126V14.7043H37.5021Z" fill="#211E1F"/>
<path d="M39.8728 18.6269C39.6353 18.6269 39.2145 18.6019 38.8937 18.6019C38.5353 18.6019 38.1145 18.6269 37.877 18.6269H37.852V18.6019V18.3936H37.877H37.9937C38.3228 18.3853 38.4562 18.3811 38.4645 17.9144V14.7311H37.5062V14.7061V14.6811H38.5187V17.9186C38.5187 18.4019 38.3228 18.4478 37.9937 18.4519H37.902V18.5769C38.1395 18.5769 38.5437 18.5561 38.8937 18.5561C39.2062 18.5561 39.6103 18.5769 39.8478 18.5769V18.4519H39.7603C39.4687 18.4519 39.2353 18.3811 39.2353 17.9103V14.6853H40.2478C40.652 14.6853 40.702 15.0311 40.7187 15.2519L40.8478 15.2061C40.8478 15.0478 40.8478 14.8936 40.8603 14.7353C40.877 14.5811 40.902 14.427 40.9228 14.2728L40.8312 14.2561C40.802 14.4311 40.6353 14.4395 40.4853 14.4395H37.3853H37.352C37.2103 14.4395 37.0562 14.4311 37.002 14.2645H36.902C36.902 14.4311 36.8895 14.5936 36.8645 14.7519C36.8478 14.9186 36.8187 15.0769 36.7979 15.2353H36.927C37.0062 14.8144 37.0562 14.6811 37.5062 14.6853V14.7103V14.7353C37.0603 14.7436 37.0728 14.8186 36.9729 15.2603L36.9687 15.2811H36.9478H36.7354L36.7395 15.2478C36.7645 15.0811 36.7937 14.9103 36.8104 14.7353C36.8354 14.5686 36.8479 14.402 36.8479 14.2311V14.2061H36.8729H37.0395L37.0437 14.227C37.0854 14.377 37.1978 14.3811 37.3478 14.3811H37.3812H40.4812C40.6478 14.377 40.7687 14.377 40.7812 14.2186L40.7853 14.1895L40.8145 14.1936L40.9853 14.2186L40.9812 14.2436C40.9562 14.4061 40.9353 14.5686 40.9145 14.7269C40.902 14.8853 40.902 15.0478 40.902 15.2103V15.2311L40.8853 15.2394L40.6728 15.3186V15.2853C40.6562 15.0603 40.6312 14.7311 40.252 14.7311H39.2937V17.9019C39.2978 18.3561 39.477 18.3853 39.7645 18.3936H39.9062V18.4186V18.6269H39.8728Z" fill="#211E1F"/>
<path d="M41.1392 18.4207H41.2225C41.4392 18.4207 41.6683 18.3915 41.6683 18.079V14.929C41.6683 14.6165 41.4392 14.5874 41.2225 14.5874H41.1392V14.4082C41.5058 14.4082 42.1308 14.4332 42.635 14.4332C43.1391 14.4332 43.7641 14.4082 44.1724 14.4082C44.1641 14.6665 44.1683 15.0624 44.1849 15.329L44.0058 15.379C43.9766 14.9874 43.9058 14.6749 43.2724 14.6749H42.4391V16.2457H43.1516C43.5099 16.2457 43.5891 16.0415 43.6266 15.7165H43.8058C43.7933 15.9499 43.7891 16.1874 43.7891 16.4207C43.7891 16.6499 43.7974 16.879 43.8058 17.104L43.6266 17.1415C43.5933 16.7832 43.5724 16.5457 43.16 16.5457H42.4391V17.9457C42.4391 18.3373 42.785 18.3373 43.1724 18.3373C43.8933 18.3373 44.2099 18.2873 44.3933 17.604L44.5599 17.6457C44.4808 17.9665 44.4099 18.2832 44.3558 18.604C43.9724 18.604 43.2808 18.579 42.7391 18.579C42.1975 18.579 41.485 18.604 41.1392 18.604V18.4207Z" fill="#211E1F"/>
<path d="M44.352 18.625C43.9645 18.625 43.277 18.6 42.7353 18.6C42.1937 18.6 41.4812 18.625 41.1354 18.625H41.1104V18.6V18.4166V18.3916H41.1354H41.2187C41.4353 18.3875 41.6353 18.3708 41.6353 18.075V14.925C41.6312 14.6333 41.4353 14.6125 41.2187 14.6083H41.1104V14.5833V14.375H41.1354C41.502 14.375 42.127 14.3958 42.6312 14.3958C43.1353 14.3958 43.7603 14.375 44.1687 14.375H44.1978V14.4C44.1937 14.4917 44.1937 14.5958 44.1937 14.7125C44.1937 14.9208 44.1978 15.1458 44.2103 15.3167V15.3375L44.1895 15.3417L43.977 15.3958V15.3667C43.9437 14.975 43.8895 14.6958 43.2728 14.6875H42.4645V16.2083H43.1562C43.502 16.2042 43.5645 16.0292 43.6062 15.7042L43.6103 15.6792H43.6353H43.8437V15.7042C43.8312 15.9375 43.8228 16.1708 43.8228 16.4083C43.8228 16.6375 43.8312 16.8625 43.8437 17.0916V17.1125L43.8228 17.1166L43.6145 17.1583L43.6103 17.1291C43.5687 16.7625 43.5645 16.5625 43.1687 16.5583H42.4728V17.9333C42.4728 18.3 42.7895 18.2958 43.1812 18.3C43.9062 18.2958 44.1937 18.2625 44.377 17.5875L44.3812 17.5625L44.4062 17.5666L44.5978 17.6166L44.5937 17.6416C44.5145 17.9583 44.4437 18.2791 44.3895 18.5958L44.3853 18.6166L44.352 18.625ZM44.3312 18.575C44.3812 18.2708 44.452 17.9666 44.527 17.6666L44.4103 17.6375C44.2312 18.3083 43.8812 18.3708 43.1728 18.3666C42.7937 18.3666 42.4145 18.3666 42.4145 17.95V16.525H43.1603C43.5812 16.5208 43.6228 16.775 43.652 17.1166L43.7812 17.0916C43.7687 16.8708 43.7645 16.65 43.7645 16.4292C43.7645 16.2042 43.7687 15.9792 43.7812 15.75H43.652C43.6187 16.0625 43.5187 16.2833 43.1562 16.2792H42.4145V14.6542H43.277C43.902 14.65 44.0062 14.9708 44.0312 15.35L44.1603 15.3167C44.152 15.1458 44.1437 14.9292 44.1437 14.7292C44.1437 14.625 44.1478 14.5292 44.1478 14.4458C43.7395 14.4458 43.1312 14.4708 42.6353 14.4708C42.1437 14.4708 41.5353 14.45 41.1645 14.4458V14.575H41.2229C41.4354 14.575 41.6937 14.6125 41.6937 14.9458V18.0958C41.6937 18.4291 41.4354 18.4625 41.2229 18.4666H41.1645V18.5916C41.5145 18.5916 42.2103 18.5708 42.7353 18.5708C43.2687 18.55 43.9437 18.5708 44.3312 18.575Z" fill="#211E1F"/>
<path d="M45.3688 15.0437C45.3688 14.6062 45.1271 14.5854 44.9438 14.5854H44.8354V14.4062C45.0271 14.4062 45.3979 14.4313 45.7646 14.4313C46.1271 14.4313 46.4146 14.4062 46.7313 14.4062C47.4896 14.4062 48.1604 14.6104 48.1604 15.4646C48.1604 16.0062 47.7979 16.3354 47.3271 16.5229L48.3563 18.0604C48.5229 18.3146 48.6438 18.3854 48.9396 18.4187V18.6021C48.7396 18.6021 48.5479 18.5771 48.3521 18.5771C48.1646 18.5771 47.9729 18.6021 47.7854 18.6021C47.3229 17.9937 46.9271 17.3479 46.5354 16.6521H46.1396V17.9396C46.1396 18.4021 46.3563 18.4187 46.6313 18.4187H46.7396V18.6021C46.3979 18.6021 46.0479 18.5771 45.7063 18.5771C45.4188 18.5771 45.1354 18.6021 44.8354 18.6021V18.4187H44.9438C45.1688 18.4187 45.3688 18.3187 45.3688 18.0937V15.0437ZM46.1396 16.4396H46.4313C47.0313 16.4396 47.3563 16.2104 47.3563 15.5021C47.3563 14.9687 47.0146 14.6271 46.4771 14.6271C46.2979 14.6271 46.2188 14.6479 46.1354 14.6521L46.1396 16.4396Z" fill="#211E1F"/>
<path d="M48.9392 18.625C48.7392 18.625 48.5475 18.6 48.3475 18.6C48.1642 18.6 47.9725 18.625 47.7642 18.6125C47.3017 18.0083 46.91 17.3625 46.5184 16.675H46.1642V17.9333C46.1725 18.3875 46.3517 18.3833 46.6309 18.3875H46.7642V18.4125V18.6208H46.7392C46.3975 18.6208 46.0476 18.5958 45.7059 18.5958C45.4184 18.5958 45.1351 18.6208 44.8351 18.6208H44.8101V18.5958V18.3875H44.8351H44.9434C45.1601 18.3875 45.3434 18.2916 45.3434 18.0916V15.0375C45.3392 14.6125 45.1309 14.6125 44.9434 14.6083H44.8101V14.5833V14.375H44.8351C45.0309 14.375 45.4017 14.4 45.7642 14.4C46.1225 14.4 46.41 14.375 46.7309 14.375C47.4892 14.375 48.185 14.5875 48.1892 15.4583C48.1892 16 47.8309 16.3417 47.3684 16.5292L48.3767 18.0416C48.5434 18.2916 48.6475 18.3541 48.9434 18.3916L48.9642 18.3958V18.4166V18.625H48.9392ZM46.1392 16.625H46.5517L46.56 16.6375C46.9517 17.3291 47.3475 17.975 47.7892 18.5708C47.9725 18.5708 48.1642 18.5458 48.3517 18.5458C48.5434 18.5458 48.7267 18.5666 48.9142 18.5708V18.4375C48.6309 18.4041 48.5017 18.3166 48.335 18.0666L47.2892 16.5L47.3184 16.4875C47.7892 16.3042 48.135 15.9833 48.135 15.4542C48.135 14.6208 47.485 14.4292 46.7309 14.425C46.4142 14.425 46.1267 14.45 45.7642 14.45C45.4101 14.45 45.0559 14.4292 44.8601 14.425V14.5542H44.9434C45.1309 14.5542 45.3976 14.5875 45.3976 15.0375V18.0916C45.3976 18.3333 45.1726 18.4416 44.9434 18.4416H44.8601V18.5666C45.1476 18.5666 45.4226 18.5416 45.7059 18.5416C46.0434 18.5416 46.3809 18.5625 46.7142 18.5666V18.4416H46.6309C46.3559 18.4416 46.1142 18.4083 46.1142 17.9333V16.6208H46.1392V16.625ZM46.1392 16.4625H46.1142V14.6208H46.135C46.2184 14.6167 46.2975 14.5958 46.4809 14.5958C47.0267 14.5958 47.385 14.95 47.385 15.5C47.385 16.2167 47.0392 16.4625 46.435 16.4625H46.1392ZM46.4309 16.4083C47.0267 16.4042 47.3267 16.1958 47.3309 15.5C47.3267 14.975 47.0017 14.65 46.4767 14.6458C46.3142 14.6458 46.2392 14.6625 46.16 14.6667V16.4083H46.4309Z" fill="#211E1F"/>
<path d="M53.0181 17.4151L53.0306 17.4026V15.1484C53.0306 14.6568 52.689 14.5818 52.5098 14.5818H52.3765V14.4026C52.6598 14.4026 52.9348 14.4276 53.2181 14.4276C53.464 14.4276 53.7098 14.4026 53.9598 14.4026V14.5818H53.8681C53.614 14.5818 53.3348 14.6276 53.3348 15.3443V18.0776C53.3348 18.2859 53.339 18.4984 53.3681 18.6859H53.139L50.0432 15.2359V17.7109C50.0432 18.2317 50.1432 18.4151 50.6057 18.4151H50.7098V18.5984C50.4515 18.5984 50.1932 18.5734 49.9348 18.5734C49.664 18.5734 49.389 18.5984 49.1182 18.5984V18.4151H49.2015C49.6182 18.4151 49.7432 18.1317 49.7432 17.6526V15.1193C49.7432 14.7818 49.4682 14.5776 49.1973 14.5776H49.1182V14.3984C49.3473 14.3984 49.5807 14.4234 49.8098 14.4234C49.989 14.4234 50.164 14.3984 50.3432 14.3984L53.0181 17.4151Z" fill="#211E1F"/>
<path d="M53.3643 18.7166L53.1185 18.7083L50.0685 15.3083V17.7166C50.0768 18.2375 50.156 18.3875 50.606 18.3916H50.7352V18.4166V18.625H50.7102C50.4518 18.625 50.1935 18.6 49.9352 18.6C49.6685 18.6 49.3894 18.625 49.1185 18.625H49.0894V18.6V18.3916H49.1185H49.2019C49.5977 18.3916 49.7102 18.1333 49.7144 17.6541V15.125C49.7144 14.8042 49.4519 14.6125 49.1935 14.6083H49.0894V14.5833V14.375H49.1185C49.3477 14.375 49.581 14.4 49.8102 14.4C49.9852 14.4 50.1602 14.375 50.3643 14.3833L53.006 17.3583V15.1458C53.006 14.6667 52.6852 14.6083 52.5102 14.6083H52.3518V14.5833V14.375H52.3768C52.6602 14.375 52.9393 14.4 53.2185 14.4C53.4643 14.4 53.7102 14.375 53.956 14.375H53.981V14.4V14.6042H53.956H53.8685C53.6227 14.6125 53.3643 14.6333 53.3602 15.3417V18.075C53.3602 18.2833 53.3643 18.4916 53.3977 18.6791L53.4018 18.7083L53.3643 18.7166ZM53.1352 18.6625H53.331C53.306 18.4833 53.2977 18.2833 53.2977 18.0833V15.35C53.2977 14.6292 53.6018 14.5625 53.8602 14.5583H53.9227V14.4333C53.6852 14.4333 53.4477 14.4583 53.2102 14.4583C52.9352 14.4583 52.6643 14.4375 52.3935 14.4333V14.5583H52.5018C52.6852 14.5583 53.0518 14.6417 53.0518 15.15L53.0435 17.4208L53.031 17.4333L53.0143 17.4541L50.3393 14.4333C50.1602 14.4333 49.9852 14.4583 49.806 14.4583C49.5852 14.4583 49.3602 14.4375 49.1394 14.4333V14.5583H49.1935C49.4769 14.5583 49.7643 14.775 49.7643 15.125V17.6541C49.7643 18.1375 49.6269 18.4458 49.1977 18.4458H49.1394V18.5708C49.3977 18.5708 49.6685 18.55 49.931 18.55C50.1852 18.55 50.431 18.5708 50.681 18.5708V18.4458H50.606C50.131 18.4458 50.0143 18.2375 50.0143 17.7166V15.175L53.1352 18.6625ZM53.0185 17.4166L53.0352 17.4L53.0185 17.4166ZM53.0018 17.4041L52.9977 17.3958L53.0018 17.4041Z" fill="#211E1F"/>
<path d="M54.9223 17.7397C54.8598 17.9439 54.789 18.1022 54.789 18.2064C54.789 18.3855 55.0432 18.4147 55.239 18.4147H55.3057V18.598C55.064 18.5855 54.8182 18.573 54.5765 18.573C54.3598 18.573 54.1473 18.5855 53.9307 18.598V18.4147H53.9682C54.2015 18.4147 54.4015 18.2772 54.489 18.023L55.4515 15.2647C55.5307 15.0439 55.639 14.7439 55.6765 14.5189C55.8681 14.4522 56.1098 14.3314 56.2223 14.2605C56.239 14.2564 56.2515 14.248 56.2723 14.248C56.289 14.248 56.3015 14.248 56.314 14.2689C56.3306 14.3147 56.3473 14.373 56.3681 14.4189L57.4723 17.5605C57.5431 17.7689 57.614 17.9939 57.6931 18.173C57.764 18.3397 57.8931 18.4147 58.089 18.4147H58.1223V18.598C57.8515 18.5855 57.5806 18.573 57.2931 18.573C56.9973 18.573 56.6973 18.5855 56.389 18.598V18.4147H56.4556C56.5931 18.4147 56.8265 18.3897 56.8265 18.2397C56.8265 18.1605 56.7723 17.998 56.7056 17.8064L56.4723 17.1105H55.1098L54.9223 17.7397ZM55.7973 15.0772H55.7848L55.2265 16.7772H56.3515L55.7973 15.0772Z" fill="#211E1F"/>
<path d="M58.1222 18.626C57.8514 18.6135 57.5805 18.601 57.2972 18.601C57.0014 18.601 56.7055 18.6135 56.3972 18.626H56.368V18.601V18.3927H56.393H56.4597C56.5972 18.3927 56.8055 18.3593 56.8055 18.2468C56.8055 18.1802 56.7514 18.0135 56.6889 17.8219L56.4597 17.1427H55.1347L54.9472 17.751C54.8847 17.9552 54.8139 18.1135 54.8139 18.2135C54.8139 18.3593 55.0389 18.3968 55.2389 18.3968H55.3305V18.4218V18.6302H55.3014C55.0597 18.6177 54.8139 18.6052 54.5764 18.6052C54.3597 18.6052 54.143 18.6177 53.9305 18.6302H53.9014V18.6052V18.3968H53.9264H53.9639C54.1889 18.3968 54.3722 18.2677 54.4597 18.026L55.4222 15.2677C55.5014 15.0427 55.6097 14.7469 55.6597 14.5052C55.8472 14.4427 56.0889 14.3219 56.2055 14.2469C56.2222 14.2427 56.2389 14.2344 56.2639 14.2344C56.2764 14.2344 56.3097 14.2385 56.3305 14.2677C56.3472 14.3177 56.368 14.3719 56.3847 14.4177L57.493 17.5594C57.5638 17.7719 57.6347 17.9927 57.7138 18.1677C57.7847 18.3302 57.893 18.3927 58.0888 18.3927H58.1513V18.4177V18.626H58.1222ZM56.418 18.5718C56.7139 18.5635 57.0055 18.551 57.293 18.551C57.5722 18.551 57.8347 18.5635 58.093 18.5718V18.4468H58.0847C57.8805 18.4468 57.7389 18.3677 57.6639 18.1885C57.5847 18.0052 57.5139 17.7844 57.443 17.5719L56.3347 14.4302C56.318 14.3844 56.2972 14.326 56.2847 14.2844C56.2805 14.2802 56.2805 14.2802 56.2764 14.2802H56.2639C56.2514 14.2802 56.243 14.2844 56.2305 14.2885C56.1139 14.3635 55.8722 14.4802 55.6972 14.5302C55.6597 14.7594 55.5514 15.0594 55.4722 15.2802L54.5097 18.0385C54.418 18.301 54.2097 18.4468 53.9639 18.4468H53.9555V18.5718C54.1597 18.5635 54.368 18.551 54.5764 18.551C54.8097 18.551 55.0472 18.5635 55.2764 18.5718V18.4468H55.2389C55.043 18.4427 54.7722 18.4218 54.7639 18.2093C54.7639 18.0885 54.8389 17.9344 54.8972 17.7344L54.9222 17.7427L54.8972 17.7344L55.0972 17.0927H56.4972L56.7389 17.8052C56.8055 17.9968 56.8597 18.1593 56.8597 18.2468C56.8514 18.4302 56.5972 18.4427 56.4597 18.4468H56.418V18.5718ZM55.1889 16.8052L55.7639 15.051H55.7847H55.7972V15.076H55.7889H55.7972V15.051H55.8139L56.3847 16.8052H55.1889ZM55.2639 16.7552H56.3139L55.7889 15.1469L55.2639 16.7552ZM55.7722 15.0885L55.7847 15.0844L55.7722 15.0885Z" fill="#211E1F"/>
<path d="M58.3893 14.7043C57.9394 14.7043 57.9227 14.8126 57.831 15.2501H57.6519C57.6769 15.0835 57.706 14.9126 57.7269 14.7376C57.7519 14.571 57.7602 14.4001 57.7602 14.2293H57.906C57.956 14.4085 58.106 14.4043 58.2643 14.4043H61.3643C61.5268 14.4043 61.6768 14.4001 61.6893 14.2168L61.831 14.2418C61.806 14.4043 61.7852 14.5668 61.7643 14.7293C61.7518 14.8918 61.7518 15.0543 61.7518 15.2168L61.5727 15.2835C61.5602 15.0626 61.531 14.7043 61.1268 14.7043H60.1393V17.9001C60.1393 18.3626 60.3518 18.4168 60.6393 18.4168H60.7518V18.6001C60.5185 18.6001 60.0977 18.5751 59.7727 18.5751C59.4143 18.5751 58.9893 18.6001 58.756 18.6001V18.4168H58.8685C59.1977 18.4168 59.3685 18.3876 59.3685 17.9126V14.7043H58.3893Z" fill="#211E1F"/>
<path d="M60.7559 18.6269C60.5184 18.6269 60.0975 18.6019 59.7767 18.6019C59.4184 18.6019 58.9975 18.6269 58.76 18.6269H58.735V18.6019V18.3936H58.76H58.8726C59.2017 18.3853 59.335 18.3811 59.3434 17.9144V14.7311H58.3851V14.7061V14.6811H59.3975V17.9186C59.3975 18.4019 59.2017 18.4478 58.8726 18.4478H58.785V18.5769C59.0225 18.5728 59.4267 18.5519 59.7767 18.5519C60.0892 18.5519 60.4934 18.5728 60.7309 18.5769V18.4478H60.6434C60.3559 18.4478 60.1184 18.3769 60.1184 17.9061V14.6811H61.1309C61.535 14.6811 61.585 15.0269 61.5975 15.2478L61.7309 15.2019C61.7309 15.0436 61.7309 14.8894 61.7434 14.7311C61.76 14.577 61.7809 14.4228 61.8059 14.2686L61.7142 14.252C61.685 14.427 61.5184 14.4353 61.3684 14.4353H58.2684H58.2392C58.0976 14.4353 57.9434 14.427 57.8892 14.2603H57.7892C57.7892 14.427 57.7767 14.5895 57.7517 14.7478C57.7351 14.9144 57.7059 15.0728 57.6851 15.2311H57.8142C57.8934 14.8103 57.9476 14.6769 58.3934 14.6811V14.7061V14.7311C57.9476 14.7394 57.9601 14.8144 57.8601 15.2561L57.8559 15.2769H57.8351H57.6226L57.6267 15.2478C57.6517 15.0769 57.6809 14.9103 57.6976 14.7353C57.7226 14.5686 57.7351 14.402 57.7351 14.227V14.2061H57.7601H57.9226L57.9267 14.227C57.9684 14.377 58.0767 14.3811 58.2309 14.3811H58.2601H61.36C61.5267 14.377 61.6475 14.377 61.6559 14.2186V14.1895L61.685 14.1936L61.8559 14.2186L61.8517 14.2436C61.8267 14.4061 61.8059 14.5686 61.785 14.7269C61.7725 14.8853 61.7725 15.0519 61.7725 15.2103V15.2311L61.7559 15.2394L61.5434 15.3186V15.2853C61.5267 15.0603 61.5059 14.7311 61.1225 14.7311H60.1642V17.9019C60.1725 18.3561 60.3517 18.3853 60.635 18.3936H60.7767V18.4186V18.6269H60.7559Z" fill="#211E1F"/>
<path d="M62.0522 18.4207H62.1356C62.3522 18.4207 62.5814 18.3915 62.5814 18.079V14.929C62.5814 14.6165 62.3564 14.5874 62.1356 14.5874H62.0522V14.4082C62.2856 14.4082 62.6481 14.4332 62.9397 14.4332C63.2397 14.4332 63.6022 14.4082 63.8856 14.4082V14.5874H63.8022C63.5856 14.5874 63.3564 14.6165 63.3564 14.929V18.079C63.3564 18.3915 63.5856 18.4207 63.8022 18.4207H63.8856V18.604C63.5981 18.604 63.2356 18.579 62.9356 18.579C62.6397 18.579 62.2856 18.604 62.0522 18.604V18.4207Z" fill="#211E1F"/>
<path d="M63.8845 18.625C63.5928 18.625 63.2345 18.6 62.9345 18.6C62.6386 18.6 62.2845 18.625 62.0511 18.625H62.0261V18.6V18.4166V18.3916H62.0511H62.1345C62.3511 18.3875 62.5511 18.3708 62.5511 18.075V14.925C62.5511 14.6333 62.3511 14.6125 62.1345 14.6083H62.022V14.5833V14.375H62.047C62.2803 14.375 62.6428 14.3958 62.9345 14.3958C63.2345 14.3958 63.5928 14.375 63.8803 14.375H63.9053V14.4V14.6042H63.8803H63.797C63.5761 14.6083 63.3803 14.6292 63.3761 14.9208V18.0708C63.3803 18.3666 63.5761 18.3833 63.797 18.3875H63.9053V18.4125V18.6208L63.8845 18.625ZM63.8553 18.575V18.4458H63.797C63.5803 18.4458 63.3261 18.4083 63.3261 18.075V14.925C63.3261 14.5917 63.5803 14.5542 63.797 14.5542H63.8553V14.425C63.5761 14.425 63.2303 14.45 62.9386 14.45C62.6553 14.45 62.3095 14.4292 62.0761 14.425V14.5542H62.1345C62.347 14.5542 62.6053 14.5917 62.6053 14.925V18.075C62.6053 18.4041 62.347 18.4458 62.1345 18.4458H62.0761V18.575C62.3095 18.5708 62.647 18.55 62.9345 18.55C63.2261 18.55 63.572 18.5708 63.8553 18.575Z" fill="#211E1F"/>
<path d="M66.2811 14.3164C67.5603 14.3164 68.5811 15.1122 68.5811 16.3914C68.5811 17.7747 67.5894 18.6914 66.3103 18.6914C65.0353 18.6914 64.0645 17.8247 64.0645 16.5331C64.0645 15.2831 65.0311 14.3164 66.2811 14.3164ZM66.3728 18.4247C67.5394 18.4247 67.7394 17.3956 67.7394 16.5206C67.7394 15.6414 67.2644 14.5789 66.2686 14.5789C65.2186 14.5789 64.9061 15.5164 64.9061 16.3206C64.9061 17.3956 65.3978 18.4247 66.3728 18.4247Z" fill="#211E1F"/>
<path d="M64.0396 16.531C64.0437 15.2685 65.0187 14.2893 66.2812 14.2852V14.3102V14.3352C65.0479 14.3352 64.0895 15.2893 64.0895 16.5268C64.0937 17.806 65.052 18.656 66.3145 18.656C67.5812 18.656 68.5562 17.7476 68.5604 16.381C68.5604 15.1185 67.552 14.3352 66.2854 14.3352V14.3102V14.2852C67.577 14.2852 68.6103 15.0893 68.6145 16.3851C68.6145 17.781 67.6104 18.7101 66.3187 18.7143C65.027 18.7101 64.0396 17.8351 64.0396 16.531ZM64.8812 16.3185C64.8812 15.5101 65.1979 14.5477 66.2729 14.5477C67.2937 14.5518 67.7687 15.6351 67.7687 16.5143C67.7687 17.3893 67.5604 18.4435 66.3729 18.4435V18.4185V18.3935C67.5145 18.3935 67.7145 17.3893 67.7145 16.5143C67.7145 15.6435 67.2437 14.6018 66.2687 14.5977C65.2395 14.5977 64.9312 15.5143 64.9312 16.3143C64.9312 17.3851 65.4187 18.3893 66.3729 18.3935V18.4185V18.4435C65.3729 18.4476 64.8812 17.4018 64.8812 16.3185Z" fill="#211E1F"/>
<path d="M72.6302 17.4151L72.6427 17.4026V15.1484C72.6427 14.6568 72.301 14.5818 72.1177 14.5818H71.9885V14.4026C72.2719 14.4026 72.5469 14.4276 72.8302 14.4276C73.076 14.4276 73.3218 14.4026 73.5718 14.4026V14.5818H73.4802C73.2302 14.5818 72.9468 14.6276 72.9468 15.3443V18.0776C72.9468 18.2859 72.951 18.4984 72.9843 18.6859H72.7552L69.6594 15.2359V17.7109C69.6594 18.2317 69.7594 18.4151 70.2219 18.4151H70.326V18.5984C70.0677 18.5984 69.8094 18.5734 69.551 18.5734C69.2802 18.5734 69.0052 18.5984 68.7344 18.5984V18.4151H68.8177C69.2344 18.4151 69.3594 18.1317 69.3594 17.6526V15.1193C69.3594 14.7818 69.0844 14.5776 68.8135 14.5776H68.7344V14.3984C68.9635 14.3984 69.1969 14.4234 69.426 14.4234C69.6052 14.4234 69.7802 14.3984 69.9594 14.3984L72.6302 17.4151Z" fill="#211E1F"/>
<path d="M72.981 18.7166L72.731 18.7083L69.681 15.3083V17.7166C69.6894 18.2375 69.7685 18.3875 70.2185 18.3916H70.3477V18.4166V18.625H70.3227C70.0644 18.625 69.806 18.6 69.5477 18.6C69.2769 18.6 69.0019 18.625 68.7311 18.625H68.7061V18.6V18.3916H68.7311H68.8144C69.2102 18.3916 69.3227 18.1375 69.331 17.6583V15.125C69.331 14.8042 69.0686 14.6125 68.8102 14.6083H68.7061V14.5833V14.375H68.7311C68.9602 14.375 69.1977 14.4 69.4227 14.4C69.6019 14.4 69.7727 14.375 69.9769 14.3875L72.6185 17.3625V15.1542C72.6185 14.675 72.2977 14.6167 72.1227 14.6125H71.9644V14.5875V14.3792H71.9935C72.2769 14.3792 72.5519 14.4 72.831 14.4C73.0769 14.4 73.3227 14.3792 73.5727 14.3792H73.5977V14.4042V14.6083H73.5727H73.481C73.2352 14.6167 72.9769 14.6375 72.9727 15.3458V18.0791C72.9727 18.2875 72.9769 18.5 73.006 18.6833L73.0102 18.7125L72.981 18.7166ZM72.7519 18.6625H72.9477C72.9227 18.4833 72.9185 18.2833 72.9185 18.0833V15.35C72.9185 14.6292 73.2227 14.5625 73.481 14.5583H73.5477V14.4333C73.3102 14.4333 73.0727 14.4583 72.831 14.4583C72.556 14.4583 72.2894 14.4375 72.0185 14.4333V14.5583H72.1227C72.3102 14.5583 72.6727 14.6417 72.6727 15.15L72.6644 17.4208L72.6519 17.4333L72.631 17.4541L69.956 14.4333C69.781 14.4333 69.6019 14.4583 69.4227 14.4583C69.2019 14.4583 68.9769 14.4375 68.7561 14.4333V14.5583H68.8102C69.0936 14.5583 69.381 14.775 69.381 15.125V17.6583C69.381 18.1375 69.2477 18.4458 68.8144 18.45H68.7561V18.5791C69.0186 18.5791 69.2852 18.5583 69.5477 18.5583C69.7977 18.5583 70.0477 18.5791 70.2977 18.5791V18.4541H70.2185C69.7477 18.4541 69.631 18.2458 69.631 17.725V15.1833L72.7519 18.6625ZM72.631 17.4166L72.6519 17.4L72.631 17.4166ZM72.6185 17.4041L72.6144 17.3958L72.6185 17.4041Z" fill="#211E1F"/>
<path d="M74.5349 17.7397C74.4766 17.9439 74.4016 18.1022 74.4016 18.2064C74.4016 18.3855 74.6557 18.4147 74.8516 18.4147H74.9182V18.598C74.6766 18.5855 74.4307 18.573 74.1891 18.573C73.9724 18.573 73.7557 18.5855 73.5391 18.598V18.4147H73.5724C73.8099 18.4147 74.0057 18.2772 74.0974 18.023L75.0599 15.2647C75.1391 15.0439 75.2474 14.7439 75.2807 14.5189C75.4724 14.4522 75.714 14.3314 75.8265 14.2605C75.8432 14.2564 75.8557 14.248 75.8724 14.248C75.889 14.248 75.9015 14.248 75.914 14.2689C75.9307 14.3147 75.9515 14.373 75.9682 14.4189L77.0724 17.5605C77.1432 17.7689 77.2182 17.9939 77.2932 18.173C77.364 18.3397 77.4932 18.4147 77.689 18.4147H77.7265V18.598C77.4557 18.5855 77.1849 18.573 76.8974 18.573C76.6015 18.573 76.3015 18.5855 75.9974 18.598V18.4147H76.064C76.2015 18.4147 76.4349 18.3897 76.4349 18.2397C76.4349 18.1605 76.3807 17.998 76.314 17.8064L76.0807 17.1105H74.7182L74.5349 17.7397ZM75.414 15.0772H75.4015L74.8432 16.7772H75.9682L75.414 15.0772Z" fill="#211E1F"/>
<path d="M77.7347 18.6248C77.4639 18.6123 77.193 18.5998 76.9055 18.5998C76.6139 18.5998 76.3139 18.6123 76.0055 18.6248H75.9805V18.5957V18.3873H76.0055H76.0722C76.2139 18.3873 76.418 18.354 76.418 18.2415C76.418 18.1748 76.3639 18.0082 76.2972 17.8165L76.068 17.1374H74.7431L74.5556 17.7457C74.4972 17.9498 74.4222 18.1082 74.4264 18.2082C74.4264 18.354 74.6514 18.3915 74.8514 18.3915H74.9431V18.4165V18.6248H74.9181C74.6764 18.6123 74.4306 18.5998 74.1931 18.5998C73.9764 18.5998 73.7597 18.6123 73.5431 18.6248H73.5181V18.5957V18.3873H73.5431H73.5764C73.8014 18.3873 73.9889 18.2582 74.0764 18.0123L75.0389 15.254C75.1139 15.029 75.2222 14.7332 75.2764 14.4915C75.4639 14.4249 75.7055 14.304 75.8222 14.2332C75.8389 14.229 75.8555 14.2207 75.8805 14.2207C75.8972 14.2207 75.9264 14.2207 75.9472 14.254C75.9639 14.2999 75.9805 14.354 76.0014 14.404L77.1055 17.5457C77.1764 17.7582 77.2514 17.979 77.3264 18.1582C77.3972 18.3165 77.5055 18.379 77.6972 18.3832H77.7597V18.4082V18.6165L77.7347 18.6248ZM76.0347 18.5707C76.3305 18.5582 76.6264 18.5498 76.9097 18.5498C77.1889 18.5498 77.4514 18.5623 77.7139 18.5707V18.4457H77.7055C77.5014 18.4457 77.3597 18.3665 77.2847 18.1873C77.2055 18.004 77.1347 17.7832 77.0639 17.5707L75.9597 14.429C75.943 14.3832 75.9222 14.3249 75.9097 14.2874C75.9055 14.279 75.9055 14.279 75.9014 14.279H75.8889C75.8764 14.279 75.868 14.2832 75.8555 14.2874C75.7389 14.3624 75.4972 14.479 75.318 14.529C75.2806 14.7582 75.1722 15.054 75.0931 15.279L74.1306 18.0373C74.0389 18.2998 73.8306 18.4457 73.5847 18.4457H73.5764V18.5707C73.7847 18.5623 73.9889 18.5498 74.1972 18.5498C74.4306 18.5498 74.6681 18.5623 74.8972 18.5707V18.4457H74.8556C74.6597 18.4415 74.3847 18.4207 74.3806 18.2082C74.3806 18.0873 74.4556 17.9373 74.5139 17.7332L74.5389 17.7415L74.5139 17.7332L74.7139 17.0915H76.1139L76.3555 17.804C76.4222 17.9957 76.4764 18.1582 76.4764 18.2457C76.468 18.429 76.2139 18.4415 76.0764 18.4457H76.0389L76.0347 18.5707ZM74.8056 16.804L75.3805 15.0499H75.3972H75.4097V15.0749H75.4014H75.4097V15.0499H75.4305L75.9972 16.804H74.8056ZM74.8764 16.754H75.9264L75.4055 15.1457L74.8764 16.754ZM75.3889 15.0874L75.4014 15.0832L75.3889 15.0874Z" fill="#211E1F"/>
<path d="M79.2514 18.0123C79.2514 18.254 79.4181 18.3248 79.6098 18.3498C79.8556 18.3665 80.1264 18.3665 80.4056 18.3373C80.6556 18.3082 80.8722 18.1623 80.9806 18.0123C81.0764 17.879 81.1306 17.7123 81.1681 17.579H81.3431C81.2764 17.9207 81.1931 18.2582 81.1222 18.5998C80.5931 18.5998 80.0639 18.5748 79.5348 18.5748C79.0056 18.5748 78.4764 18.5998 77.9473 18.5998V18.4165H78.0306C78.2473 18.4165 78.4848 18.3873 78.4848 18.0165V14.929C78.4848 14.6165 78.2514 14.5874 78.0306 14.5874H77.9473V14.4082C78.2639 14.4082 78.5764 14.4332 78.8973 14.4332C79.2056 14.4332 79.5056 14.4082 79.8098 14.4082V14.5874H79.6598C79.4306 14.5874 79.2514 14.5957 79.2514 14.9124V18.0123Z" fill="#211E1F"/>
<path d="M81.1182 18.6247C80.589 18.6247 80.0598 18.5997 79.5349 18.5997C79.0057 18.5997 78.4765 18.6247 77.9474 18.6247H77.9224V18.5997V18.3914H77.9474H78.0307C78.2474 18.3872 78.4557 18.3705 78.4557 18.0164V14.9289C78.4515 14.6372 78.2474 14.6164 78.0307 14.6122H77.9224V14.5872V14.3789H77.9474C78.2682 14.3789 78.5807 14.3997 78.8974 14.3997C79.2015 14.3997 79.5015 14.3789 79.8099 14.3789H79.8349V14.4039V14.6081H79.8099H79.6599C79.4265 14.6164 79.2807 14.6039 79.2765 14.9081V18.008C79.2765 18.233 79.4265 18.2914 79.614 18.3205C79.7182 18.3289 79.8307 18.333 79.9474 18.333C80.0932 18.333 80.2473 18.3247 80.4015 18.308C80.6473 18.2789 80.8557 18.1372 80.9598 17.9955C81.0515 17.8664 81.1057 17.7039 81.1432 17.5706L81.1473 17.5497H81.1682H81.3765L81.3723 17.5831C81.3057 17.9247 81.2223 18.2622 81.1473 18.6039L81.1432 18.6247H81.1182ZM81.0973 18.5747C81.1682 18.2497 81.2473 17.9289 81.3098 17.6039H81.1848C81.1473 17.7331 81.0932 17.8955 81.0015 18.0289C80.889 18.183 80.6682 18.333 80.4057 18.3622C80.2473 18.3789 80.0932 18.3872 79.9432 18.3872C79.8265 18.3872 79.714 18.383 79.6057 18.3747C79.4099 18.3539 79.2224 18.2705 79.2224 18.0122V14.9122C79.2224 14.5789 79.4349 14.5622 79.6557 14.5622H79.7807V14.4331C79.4849 14.4331 79.1932 14.4581 78.8932 14.4581C78.5807 14.4581 78.2765 14.4372 77.9682 14.4331V14.5622H78.0265C78.2432 14.5622 78.5015 14.5997 78.5015 14.9289V18.0164C78.5015 18.4039 78.239 18.4455 78.0265 18.4455H77.9682V18.5705C78.489 18.5705 79.0057 18.5497 79.5307 18.5497C80.0557 18.5497 80.5765 18.5705 81.0973 18.5747Z" fill="#211E1F"/>
<path d="M81.2681 14.2344C81.6305 14.2344 81.9013 14.5135 81.9013 14.8677C81.9013 15.2219 81.6305 15.4969 81.2681 15.4969C80.9056 15.4969 80.6348 15.2219 80.6348 14.8677C80.6348 14.5135 80.9056 14.2344 81.2681 14.2344ZM81.2681 15.3844C81.5514 15.3844 81.768 15.1427 81.768 14.8719C81.768 14.601 81.5555 14.3552 81.2681 14.3552C80.9847 14.3552 80.7639 14.601 80.7639 14.8719C80.7681 15.1427 80.9847 15.3844 81.2681 15.3844ZM80.9556 15.2052V15.1719C81.0347 15.1594 81.0472 15.1635 81.0472 15.1135V14.6469C81.0472 14.5802 81.0389 14.5594 80.9597 14.5635V14.5302H81.2847C81.3972 14.5302 81.4972 14.5844 81.4972 14.6969C81.4972 14.7927 81.4347 14.8594 81.3472 14.8885L81.4514 15.0344C81.5014 15.101 81.5555 15.1635 81.5889 15.1844V15.2052H81.4639C81.4055 15.2052 81.3514 15.0802 81.2347 14.9135H81.1639V15.1219C81.1639 15.1635 81.1764 15.1594 81.2556 15.1719V15.2052H80.9556ZM81.1681 14.8719H81.243C81.3264 14.8719 81.3639 14.8094 81.3639 14.7094C81.3639 14.6094 81.3055 14.5719 81.2389 14.5719H81.1681V14.8719Z" fill="#211E1F"/>
<path d="M16.3894 21.996C22.131 22.0251 27.3685 17.3168 27.3685 11.5877C27.3685 5.32523 22.1269 0.996094 16.3894 0.996094H11.4478C5.63949 0.996094 0.860352 5.32523 0.860352 11.5877C0.860352 17.3168 5.63949 22.0251 11.4478 21.996H16.3894Z" fill="#0079BE"/>
<path d="M11.4725 1.86133C6.16423 1.86133 1.86426 6.16547 1.86426 11.4738C1.86426 16.7821 6.16423 21.082 11.4725 21.0862C16.7808 21.0862 21.085 16.7821 21.085 11.4738C21.085 6.16547 16.7808 1.86549 11.4725 1.86133ZM5.3809 11.4779C5.38507 8.88212 7.00589 6.66963 9.28921 5.79047V17.1612C7.00589 16.2821 5.38507 14.0696 5.3809 11.4779ZM13.6517 17.1654V5.79047C15.9392 6.66963 17.56 8.88212 17.5642 11.4779C17.56 14.0737 15.9392 16.2862 13.6517 17.1654Z" fill="white"/>
<path d="M30.7349 5.5121C30.7349 4.52044 30.2183 4.58294 29.7183 4.57461V4.28711C30.1474 4.30794 30.5891 4.30794 31.0224 4.30794C31.4849 4.30794 32.1141 4.28711 32.9349 4.28711C35.7932 4.28711 37.3515 6.19543 37.3515 8.15375C37.3515 9.24541 36.7099 11.9954 32.8016 11.9954C32.2391 11.9954 31.7183 11.9746 31.2016 11.9746C30.7058 11.9746 30.2183 11.9871 29.7224 11.9954V11.7079C30.3849 11.6412 30.7058 11.6204 30.7391 10.8662L30.7349 5.5121ZM31.8141 10.6954C31.8141 11.5454 32.4224 11.6454 32.9641 11.6454C35.3516 11.6454 36.1349 9.84541 36.1349 8.19958C36.1349 6.13293 34.8099 4.64544 32.6807 4.64544C32.2266 4.64544 32.0182 4.67877 31.8182 4.69127L31.8141 10.6954Z" fill="#211E1F"/>
<path d="M37.7356 11.7118H37.9439C38.2523 11.7118 38.4731 11.7118 38.4731 11.3451V8.35349C38.4731 7.87016 38.3064 7.79933 37.8981 7.58266V7.40766C38.4189 7.25349 39.0356 7.04516 39.0773 7.01183C39.1564 6.966 39.2231 6.95766 39.2773 6.95766C39.3314 6.95766 39.3564 7.02433 39.3564 7.11183V11.3535C39.3564 11.7201 39.5981 11.7201 39.9064 11.7201H40.0939V12.0076C39.7189 12.0076 39.3314 11.9868 38.9356 11.9868C38.5398 11.9868 38.1398 11.9993 37.7314 12.0076L37.7356 11.7118ZM38.9189 5.24934C38.6314 5.24934 38.3773 4.98268 38.3773 4.69935C38.3773 4.42435 38.6439 4.16602 38.9189 4.16602C39.2064 4.16602 39.4606 4.39935 39.4606 4.69935C39.4606 4.99518 39.2148 5.24934 38.9189 5.24934Z" fill="#211E1F"/>
<path d="M41.1478 8.41809C41.1478 8.00976 41.027 7.90142 40.5062 7.68893V7.48059C40.9812 7.32643 41.4312 7.1806 41.9645 6.95143C41.9978 6.95143 42.0312 6.97227 42.0312 7.05976V7.77642C42.6603 7.32226 43.202 6.94727 43.9437 6.94727C44.8812 6.94727 45.2103 7.63059 45.2103 8.49308V11.3431C45.2103 11.7097 45.452 11.7097 45.7645 11.7097H45.9645V11.9972C45.577 11.9972 45.1895 11.9764 44.7937 11.9764C44.3937 11.9764 43.9978 11.9889 43.602 11.9972V11.7097H43.802C44.1103 11.7097 44.3312 11.7097 44.3312 11.3431V8.48475C44.3312 7.85559 43.9478 7.54726 43.3145 7.54726C42.9603 7.54726 42.3978 7.83476 42.0312 8.07642V11.3431C42.0312 11.7097 42.277 11.7097 42.5853 11.7097H42.7853V11.9972C42.3978 11.9972 42.0103 11.9764 41.6145 11.9764C41.2187 11.9764 40.8187 11.9889 40.4229 11.9972V11.7097H40.6228C40.9312 11.7097 41.152 11.7097 41.152 11.3431L41.1478 8.41809Z" fill="#211E1F"/>
<path d="M46.8018 8.95142C46.7768 9.05142 46.7768 9.21809 46.8018 9.59309C46.8684 10.6431 47.5434 11.5014 48.4226 11.5014C49.0309 11.5014 49.5059 11.1722 49.9143 10.7598L50.0684 10.9139C49.5601 11.5889 48.9309 12.1597 48.0268 12.1597C46.2685 12.1597 45.9185 10.4598 45.9185 9.75142C45.9185 7.58476 47.3768 6.94727 48.1476 6.94727C49.0434 6.94727 50.0059 7.50976 50.0143 8.68059C50.0143 8.74726 50.0143 8.81392 50.0059 8.88059L49.9059 8.94726H46.8018V8.95142ZM48.7559 8.59726C49.0309 8.59726 49.0643 8.45559 49.0643 8.32226C49.0643 7.75976 48.7226 7.3056 48.1018 7.3056C47.4268 7.3056 46.9643 7.80143 46.831 8.59726H48.7559Z" fill="#211E1F"/>
<path d="M50.2686 11.7117H50.5686C50.8769 11.7117 51.0977 11.7117 51.0977 11.345V8.24088C51.0977 7.89921 50.6894 7.83255 50.5227 7.74505V7.57838C51.3269 7.23672 51.7727 6.94922 51.8727 6.94922C51.9394 6.94922 51.9685 6.98255 51.9685 7.09505V8.09088H51.9935C52.2685 7.66171 52.7352 6.95339 53.406 6.95339C53.681 6.95339 54.0352 7.14088 54.0352 7.54088C54.0352 7.84088 53.8269 8.10338 53.5185 8.10338C53.1769 8.10338 53.1769 7.83671 52.7894 7.83671C52.6019 7.83671 51.9852 8.09088 51.9852 8.75337V11.3492C51.9852 11.7159 52.206 11.7159 52.5144 11.7159H53.131V12.0034C52.5227 11.9909 52.0602 11.9825 51.5852 11.9825C51.131 11.9825 50.6686 11.995 50.2727 12.0034L50.2686 11.7117Z" fill="#211E1F"/>
<path d="M54.5223 10.4614C54.6681 11.1906 55.1056 11.8114 55.9139 11.8114C56.5639 11.8114 56.8056 11.4156 56.8056 11.0281C56.8056 9.72394 54.3973 10.1448 54.3973 8.36562C54.3973 7.74479 54.8931 6.95312 56.1098 6.95312C56.4639 6.95312 56.9389 7.05312 57.3681 7.27396L57.4472 8.39895H57.1931C57.0847 7.70312 56.6972 7.30729 55.9889 7.30729C55.5473 7.30729 55.1264 7.56145 55.1264 8.03645C55.1264 9.32811 57.6889 8.93228 57.6889 10.6656C57.6889 11.3948 57.1014 12.1698 55.7889 12.1698C55.3473 12.1698 54.8264 12.0156 54.4431 11.7948L54.3223 10.5239L54.5223 10.4614Z" fill="#211E1F"/>
<path d="M67.6597 6.28775H67.3847C67.1764 4.99609 66.2597 4.47526 65.0222 4.47526C63.7514 4.47526 61.9056 5.32525 61.9056 7.97524C61.9056 10.2086 63.4972 11.8085 65.1972 11.8085C66.2889 11.8085 67.1972 11.0585 67.4181 9.89606L67.6722 9.96272L67.4181 11.5752C66.9556 11.8627 65.7056 12.1627 64.9764 12.1627C62.3931 12.1627 60.7598 10.4961 60.7598 8.00857C60.7598 5.74608 62.7806 4.12109 64.9431 4.12109C65.8389 4.12109 66.6972 4.40859 67.5472 4.70859L67.6597 6.28775Z" fill="#211E1F"/>
<path d="M68.0596 11.7105H68.2679C68.5762 11.7105 68.8012 11.7105 68.8012 11.3438V5.19387C68.8012 4.47721 68.6346 4.45221 68.2137 4.33138V4.15638C68.6554 4.01471 69.1179 3.81471 69.3512 3.68138C69.4721 3.61471 69.5596 3.56055 69.5929 3.56055C69.6596 3.56055 69.6846 3.62721 69.6846 3.71471V11.3438C69.6846 11.7105 69.9262 11.7105 70.2346 11.7105H70.4221V11.998C70.0471 11.998 69.6637 11.9772 69.2637 11.9772C68.8679 11.9772 68.4679 11.9897 68.0596 11.998V11.7105Z" fill="#211E1F"/>
<path d="M75.1473 11.3877C75.1473 11.5877 75.2682 11.6002 75.4557 11.6002C75.589 11.6002 75.7557 11.5877 75.8973 11.5877V11.8211C75.4223 11.8627 74.5182 12.0961 74.3057 12.1627L74.2515 12.1294V11.2377C73.589 11.7794 73.0807 12.1669 72.2974 12.1669C71.7015 12.1669 71.0849 11.7794 71.0849 10.8544V8.02525C71.0849 7.73776 71.039 7.46276 70.4224 7.40859V7.20026C70.8224 7.18776 71.7015 7.12109 71.8474 7.12109C71.9682 7.12109 71.9682 7.20026 71.9682 7.44192V10.2919C71.9682 10.6252 71.9682 11.5752 72.9265 11.5752C73.3015 11.5752 73.7973 11.2877 74.264 10.9044V7.93359C74.264 7.71276 73.7348 7.59192 73.339 7.47943V7.27943C74.3307 7.21276 74.9515 7.12526 75.0598 7.12526C75.1473 7.12526 75.1473 7.20443 75.1473 7.32526V11.3877Z" fill="#211E1F"/>
<path d="M77.3475 7.74385C77.7892 7.36886 78.385 6.94802 78.9933 6.94802C80.2767 6.94802 81.0475 8.06468 81.0475 9.26884C81.0475 10.7147 79.9892 12.1647 78.4058 12.1647C77.5892 12.1647 77.16 11.898 76.8725 11.7772L76.5434 12.0313L76.3142 11.9105C76.41 11.2605 76.4684 10.6188 76.4684 9.94384V5.19387C76.4684 4.47721 76.3017 4.45221 75.8809 4.33138V4.15638C76.3225 4.01471 76.785 3.81471 77.0184 3.68138C77.1392 3.61471 77.2267 3.56055 77.26 3.56055C77.3267 3.56055 77.3475 3.62721 77.3475 3.71471V7.74385ZM77.3475 10.748C77.3475 11.1688 77.7434 11.8772 78.485 11.8772C79.6683 11.8772 80.1642 10.7147 80.1642 9.73551C80.1642 8.54385 79.26 7.54802 78.3975 7.54802C77.9892 7.54802 77.6475 7.81469 77.3475 8.06885V10.748Z" fill="#211E1F"/>
<path d="M29.7061 18.4207H29.7894C30.0061 18.4207 30.2352 18.3915 30.2352 18.079V14.929C30.2352 14.6165 30.0061 14.5874 29.7894 14.5874H29.7061V14.4082C29.9394 14.4082 30.3019 14.4332 30.5977 14.4332C30.8977 14.4332 31.256 14.4082 31.5394 14.4082V14.5874H31.456C31.2394 14.5874 31.0102 14.6165 31.0102 14.929V18.079C31.0102 18.3915 31.2394 18.4207 31.456 18.4207H31.5394V18.604C31.2519 18.604 30.8894 18.579 30.5894 18.579C30.2936 18.579 29.9394 18.604 29.7061 18.604V18.4207Z" fill="#211E1F"/>
<path d="M31.5395 18.6247C31.2478 18.6247 30.8895 18.5997 30.5895 18.5997C30.2936 18.5997 29.9436 18.6247 29.7062 18.6247H29.6812V18.5997V18.4205V18.3955H29.7062H29.7895C30.0061 18.3914 30.2061 18.3747 30.2061 18.0789V14.9289C30.202 14.6372 30.0061 14.6164 29.7895 14.6122H29.6812V14.5872V14.3789H29.7062C29.9436 14.3789 30.302 14.4039 30.5978 14.4039C30.8978 14.4039 31.2561 14.3789 31.5395 14.3789H31.5645V14.4081V14.6122H31.5395H31.4561C31.2395 14.6164 31.0395 14.6372 31.0395 14.9289V18.0789C31.0395 18.3705 31.2395 18.3914 31.4561 18.3955H31.5686V18.4205V18.6289L31.5395 18.6247ZM31.5145 18.5747V18.4455H31.4561C31.2395 18.4455 30.9853 18.408 30.9853 18.0747V14.9247C30.9853 14.5914 31.2436 14.5539 31.4561 14.5539H31.5145V14.4247C31.2353 14.4247 30.8895 14.4497 30.5978 14.4497C30.3145 14.4497 29.9687 14.4289 29.7353 14.4247V14.5539H29.7937C30.0062 14.5539 30.2645 14.5914 30.2645 14.9247V18.0747C30.2645 18.408 30.0062 18.4455 29.7937 18.4455H29.7353V18.5747C29.9687 18.5705 30.3061 18.5497 30.5936 18.5497C30.8811 18.5497 31.2311 18.5705 31.5145 18.5747Z" fill="#211E1F"/>
<path d="M35.6685 17.4187L35.681 17.4062V15.1521C35.681 14.6604 35.3394 14.5854 35.1602 14.5854H35.0269V14.4062C35.3102 14.4062 35.5852 14.4313 35.8685 14.4313C36.1144 14.4313 36.3602 14.4062 36.6102 14.4062V14.5854H36.5185C36.2644 14.5854 35.9852 14.6312 35.9852 15.3479V18.0812C35.9852 18.2896 35.9894 18.5021 36.0227 18.6896H35.7935L32.6935 15.2437V17.7187C32.6935 18.2396 32.7935 18.4229 33.2602 18.4229H33.3602V18.6062C33.1019 18.6062 32.8435 18.5812 32.5852 18.5812C32.3144 18.5812 32.0394 18.6062 31.7686 18.6062V18.4229H31.8519C32.2644 18.4229 32.3936 18.1396 32.3936 17.6604V15.1271C32.3936 14.7896 32.1144 14.5854 31.8477 14.5854H31.7686V14.4062C31.9977 14.4062 32.2311 14.4313 32.4602 14.4313C32.6394 14.4313 32.8144 14.4062 32.9935 14.4062L35.6685 17.4187Z" fill="#211E1F"/>
<path d="M36.0145 18.7164L35.7686 18.708L32.7186 15.3081V17.7164C32.727 18.2372 32.8061 18.3872 33.2561 18.3914H33.3853V18.4164V18.6247H33.3603C33.102 18.6247 32.8395 18.5997 32.5853 18.5997C32.3145 18.5997 32.0395 18.6247 31.7687 18.6247H31.7437V18.5997V18.3914H31.7687H31.852C32.2478 18.3914 32.3603 18.133 32.3686 17.6539V15.1247C32.3686 14.8039 32.1061 14.6122 31.8478 14.6081H31.7437V14.5831V14.3789H31.7687C31.9978 14.3789 32.2353 14.3997 32.4603 14.3997C32.6395 14.3997 32.8145 14.3789 33.0145 14.3872L35.6561 17.3622V15.1539C35.652 14.6747 35.3353 14.6164 35.1603 14.6122H35.002V14.5872V14.3831H35.027C35.3103 14.3831 35.5895 14.4039 35.8686 14.4039C36.1145 14.4039 36.3603 14.3831 36.6061 14.3831H36.6311V14.4081V14.6122H36.6061H36.5145C36.2645 14.6206 36.0103 14.6414 36.0061 15.3497V18.083C36.0061 18.2914 36.0103 18.5039 36.0395 18.6872L36.0436 18.7164H36.0145ZM35.7853 18.6622H35.9853C35.9603 18.483 35.952 18.283 35.952 18.083V15.3497C35.952 14.6289 36.252 14.5622 36.5145 14.5622H36.577V14.4331C36.3395 14.4331 36.102 14.4581 35.8645 14.4581C35.5895 14.4581 35.3228 14.4372 35.052 14.4331V14.5622H35.1561C35.3395 14.5622 35.7061 14.6456 35.7061 15.1539L35.6978 17.4247L35.6853 17.4372L35.6645 17.4581L32.9936 14.4372C32.8145 14.4372 32.6395 14.4622 32.4603 14.4622C32.2395 14.4622 32.0145 14.4414 31.7978 14.4372V14.5664H31.852C32.1353 14.5664 32.4228 14.7831 32.4228 15.1331V17.6622C32.4228 18.1414 32.2895 18.4497 31.8562 18.4497H31.7978V18.5789C32.0561 18.5747 32.327 18.5539 32.5895 18.5539C32.8395 18.5539 33.0895 18.5747 33.3395 18.5789V18.4497H33.2645C32.7895 18.4497 32.6728 18.2414 32.6728 17.7206V15.1789L35.7853 18.6622ZM35.6686 17.4164L35.6895 17.3997L35.6686 17.4164ZM35.652 17.4039L35.6478 17.3956L35.652 17.4039Z" fill="#211E1F"/>
<path d="M37.5021 14.7043C37.0521 14.7043 37.0355 14.8126 36.9438 15.2501H36.7646C36.7896 15.0835 36.8188 14.9126 36.8355 14.7376C36.8605 14.571 36.873 14.4001 36.873 14.2293H37.0188C37.0688 14.4085 37.2188 14.4043 37.3813 14.4043H40.4813C40.6438 14.4043 40.7938 14.4001 40.8063 14.2168L40.948 14.2418C40.923 14.4043 40.9021 14.5668 40.8813 14.7293C40.8688 14.8918 40.8688 15.0543 40.8688 15.2168L40.6896 15.2835C40.6771 15.0626 40.648 14.7043 40.2438 14.7043H39.2563V17.9001C39.2563 18.3626 39.4688 18.4168 39.7521 18.4168H39.8688V18.6001C39.6355 18.6001 39.2146 18.5751 38.8896 18.5751C38.5313 18.5751 38.1063 18.6001 37.873 18.6001V18.4168H37.9896C38.323 18.4168 38.4896 18.3876 38.4896 17.9126V14.7043H37.5021Z" fill="#211E1F"/>
<path d="M39.8728 18.6269C39.6353 18.6269 39.2145 18.6019 38.8937 18.6019C38.5353 18.6019 38.1145 18.6269 37.877 18.6269H37.852V18.6019V18.3936H37.877H37.9937C38.3228 18.3853 38.4562 18.3811 38.4645 17.9144V14.7311H37.5062V14.7061V14.6811H38.5187V17.9186C38.5187 18.4019 38.3228 18.4478 37.9937 18.4519H37.902V18.5769C38.1395 18.5769 38.5437 18.5561 38.8937 18.5561C39.2062 18.5561 39.6103 18.5769 39.8478 18.5769V18.4519H39.7603C39.4687 18.4519 39.2353 18.3811 39.2353 17.9103V14.6853H40.2478C40.652 14.6853 40.702 15.0311 40.7187 15.2519L40.8478 15.2061C40.8478 15.0478 40.8478 14.8936 40.8603 14.7353C40.877 14.5811 40.902 14.427 40.9228 14.2728L40.8312 14.2561C40.802 14.4311 40.6353 14.4395 40.4853 14.4395H37.3853H37.352C37.2103 14.4395 37.0562 14.4311 37.002 14.2645H36.902C36.902 14.4311 36.8895 14.5936 36.8645 14.7519C36.8478 14.9186 36.8187 15.0769 36.7979 15.2353H36.927C37.0062 14.8144 37.0562 14.6811 37.5062 14.6853V14.7103V14.7353C37.0603 14.7436 37.0728 14.8186 36.9729 15.2603L36.9687 15.2811H36.9478H36.7354L36.7395 15.2478C36.7645 15.0811 36.7937 14.9103 36.8104 14.7353C36.8354 14.5686 36.8479 14.402 36.8479 14.2311V14.2061H36.8729H37.0395L37.0437 14.227C37.0854 14.377 37.1978 14.3811 37.3478 14.3811H37.3812H40.4812C40.6478 14.377 40.7687 14.377 40.7812 14.2186L40.7853 14.1895L40.8145 14.1936L40.9853 14.2186L40.9812 14.2436C40.9562 14.4061 40.9353 14.5686 40.9145 14.7269C40.902 14.8853 40.902 15.0478 40.902 15.2103V15.2311L40.8853 15.2394L40.6728 15.3186V15.2853C40.6562 15.0603 40.6312 14.7311 40.252 14.7311H39.2937V17.9019C39.2978 18.3561 39.477 18.3853 39.7645 18.3936H39.9062V18.4186V18.6269H39.8728Z" fill="#211E1F"/>
<path d="M41.1392 18.4207H41.2225C41.4392 18.4207 41.6683 18.3915 41.6683 18.079V14.929C41.6683 14.6165 41.4392 14.5874 41.2225 14.5874H41.1392V14.4082C41.5058 14.4082 42.1308 14.4332 42.635 14.4332C43.1391 14.4332 43.7641 14.4082 44.1724 14.4082C44.1641 14.6665 44.1683 15.0624 44.1849 15.329L44.0058 15.379C43.9766 14.9874 43.9058 14.6749 43.2724 14.6749H42.4391V16.2457H43.1516C43.5099 16.2457 43.5891 16.0415 43.6266 15.7165H43.8058C43.7933 15.9499 43.7891 16.1874 43.7891 16.4207C43.7891 16.6499 43.7974 16.879 43.8058 17.104L43.6266 17.1415C43.5933 16.7832 43.5724 16.5457 43.16 16.5457H42.4391V17.9457C42.4391 18.3373 42.785 18.3373 43.1724 18.3373C43.8933 18.3373 44.2099 18.2873 44.3933 17.604L44.5599 17.6457C44.4808 17.9665 44.4099 18.2832 44.3558 18.604C43.9724 18.604 43.2808 18.579 42.7391 18.579C42.1975 18.579 41.485 18.604 41.1392 18.604V18.4207Z" fill="#211E1F"/>
<path d="M44.352 18.625C43.9645 18.625 43.277 18.6 42.7353 18.6C42.1937 18.6 41.4812 18.625 41.1354 18.625H41.1104V18.6V18.4166V18.3916H41.1354H41.2187C41.4353 18.3875 41.6353 18.3708 41.6353 18.075V14.925C41.6312 14.6333 41.4353 14.6125 41.2187 14.6083H41.1104V14.5833V14.375H41.1354C41.502 14.375 42.127 14.3958 42.6312 14.3958C43.1353 14.3958 43.7603 14.375 44.1687 14.375H44.1978V14.4C44.1937 14.4917 44.1937 14.5958 44.1937 14.7125C44.1937 14.9208 44.1978 15.1458 44.2103 15.3167V15.3375L44.1895 15.3417L43.977 15.3958V15.3667C43.9437 14.975 43.8895 14.6958 43.2728 14.6875H42.4645V16.2083H43.1562C43.502 16.2042 43.5645 16.0292 43.6062 15.7042L43.6103 15.6792H43.6353H43.8437V15.7042C43.8312 15.9375 43.8228 16.1708 43.8228 16.4083C43.8228 16.6375 43.8312 16.8625 43.8437 17.0916V17.1125L43.8228 17.1166L43.6145 17.1583L43.6103 17.1291C43.5687 16.7625 43.5645 16.5625 43.1687 16.5583H42.4728V17.9333C42.4728 18.3 42.7895 18.2958 43.1812 18.3C43.9062 18.2958 44.1937 18.2625 44.377 17.5875L44.3812 17.5625L44.4062 17.5666L44.5978 17.6166L44.5937 17.6416C44.5145 17.9583 44.4437 18.2791 44.3895 18.5958L44.3853 18.6166L44.352 18.625ZM44.3312 18.575C44.3812 18.2708 44.452 17.9666 44.527 17.6666L44.4103 17.6375C44.2312 18.3083 43.8812 18.3708 43.1728 18.3666C42.7937 18.3666 42.4145 18.3666 42.4145 17.95V16.525H43.1603C43.5812 16.5208 43.6228 16.775 43.652 17.1166L43.7812 17.0916C43.7687 16.8708 43.7645 16.65 43.7645 16.4292C43.7645 16.2042 43.7687 15.9792 43.7812 15.75H43.652C43.6187 16.0625 43.5187 16.2833 43.1562 16.2792H42.4145V14.6542H43.277C43.902 14.65 44.0062 14.9708 44.0312 15.35L44.1603 15.3167C44.152 15.1458 44.1437 14.9292 44.1437 14.7292C44.1437 14.625 44.1478 14.5292 44.1478 14.4458C43.7395 14.4458 43.1312 14.4708 42.6353 14.4708C42.1437 14.4708 41.5353 14.45 41.1645 14.4458V14.575H41.2229C41.4354 14.575 41.6937 14.6125 41.6937 14.9458V18.0958C41.6937 18.4291 41.4354 18.4625 41.2229 18.4666H41.1645V18.5916C41.5145 18.5916 42.2103 18.5708 42.7353 18.5708C43.2687 18.55 43.9437 18.5708 44.3312 18.575Z" fill="#211E1F"/>
<path d="M45.3688 15.0437C45.3688 14.6062 45.1271 14.5854 44.9438 14.5854H44.8354V14.4062C45.0271 14.4062 45.3979 14.4313 45.7646 14.4313C46.1271 14.4313 46.4146 14.4062 46.7313 14.4062C47.4896 14.4062 48.1604 14.6104 48.1604 15.4646C48.1604 16.0062 47.7979 16.3354 47.3271 16.5229L48.3563 18.0604C48.5229 18.3146 48.6438 18.3854 48.9396 18.4187V18.6021C48.7396 18.6021 48.5479 18.5771 48.3521 18.5771C48.1646 18.5771 47.9729 18.6021 47.7854 18.6021C47.3229 17.9937 46.9271 17.3479 46.5354 16.6521H46.1396V17.9396C46.1396 18.4021 46.3563 18.4187 46.6313 18.4187H46.7396V18.6021C46.3979 18.6021 46.0479 18.5771 45.7063 18.5771C45.4188 18.5771 45.1354 18.6021 44.8354 18.6021V18.4187H44.9438C45.1688 18.4187 45.3688 18.3187 45.3688 18.0937V15.0437ZM46.1396 16.4396H46.4313C47.0313 16.4396 47.3563 16.2104 47.3563 15.5021C47.3563 14.9687 47.0146 14.6271 46.4771 14.6271C46.2979 14.6271 46.2188 14.6479 46.1354 14.6521L46.1396 16.4396Z" fill="#211E1F"/>
<path d="M48.9392 18.625C48.7392 18.625 48.5475 18.6 48.3475 18.6C48.1642 18.6 47.9725 18.625 47.7642 18.6125C47.3017 18.0083 46.91 17.3625 46.5184 16.675H46.1642V17.9333C46.1725 18.3875 46.3517 18.3833 46.6309 18.3875H46.7642V18.4125V18.6208H46.7392C46.3975 18.6208 46.0476 18.5958 45.7059 18.5958C45.4184 18.5958 45.1351 18.6208 44.8351 18.6208H44.8101V18.5958V18.3875H44.8351H44.9434C45.1601 18.3875 45.3434 18.2916 45.3434 18.0916V15.0375C45.3392 14.6125 45.1309 14.6125 44.9434 14.6083H44.8101V14.5833V14.375H44.8351C45.0309 14.375 45.4017 14.4 45.7642 14.4C46.1225 14.4 46.41 14.375 46.7309 14.375C47.4892 14.375 48.185 14.5875 48.1892 15.4583C48.1892 16 47.8309 16.3417 47.3684 16.5292L48.3767 18.0416C48.5434 18.2916 48.6475 18.3541 48.9434 18.3916L48.9642 18.3958V18.4166V18.625H48.9392ZM46.1392 16.625H46.5517L46.56 16.6375C46.9517 17.3291 47.3475 17.975 47.7892 18.5708C47.9725 18.5708 48.1642 18.5458 48.3517 18.5458C48.5434 18.5458 48.7267 18.5666 48.9142 18.5708V18.4375C48.6309 18.4041 48.5017 18.3166 48.335 18.0666L47.2892 16.5L47.3184 16.4875C47.7892 16.3042 48.135 15.9833 48.135 15.4542C48.135 14.6208 47.485 14.4292 46.7309 14.425C46.4142 14.425 46.1267 14.45 45.7642 14.45C45.4101 14.45 45.0559 14.4292 44.8601 14.425V14.5542H44.9434C45.1309 14.5542 45.3976 14.5875 45.3976 15.0375V18.0916C45.3976 18.3333 45.1726 18.4416 44.9434 18.4416H44.8601V18.5666C45.1476 18.5666 45.4226 18.5416 45.7059 18.5416C46.0434 18.5416 46.3809 18.5625 46.7142 18.5666V18.4416H46.6309C46.3559 18.4416 46.1142 18.4083 46.1142 17.9333V16.6208H46.1392V16.625ZM46.1392 16.4625H46.1142V14.6208H46.135C46.2184 14.6167 46.2975 14.5958 46.4809 14.5958C47.0267 14.5958 47.385 14.95 47.385 15.5C47.385 16.2167 47.0392 16.4625 46.435 16.4625H46.1392ZM46.4309 16.4083C47.0267 16.4042 47.3267 16.1958 47.3309 15.5C47.3267 14.975 47.0017 14.65 46.4767 14.6458C46.3142 14.6458 46.2392 14.6625 46.16 14.6667V16.4083H46.4309Z" fill="#211E1F"/>
<path d="M53.0181 17.4151L53.0306 17.4026V15.1484C53.0306 14.6568 52.689 14.5818 52.5098 14.5818H52.3765V14.4026C52.6598 14.4026 52.9348 14.4276 53.2181 14.4276C53.464 14.4276 53.7098 14.4026 53.9598 14.4026V14.5818H53.8681C53.614 14.5818 53.3348 14.6276 53.3348 15.3443V18.0776C53.3348 18.2859 53.339 18.4984 53.3681 18.6859H53.139L50.0432 15.2359V17.7109C50.0432 18.2317 50.1432 18.4151 50.6057 18.4151H50.7098V18.5984C50.4515 18.5984 50.1932 18.5734 49.9348 18.5734C49.664 18.5734 49.389 18.5984 49.1182 18.5984V18.4151H49.2015C49.6182 18.4151 49.7432 18.1317 49.7432 17.6526V15.1193C49.7432 14.7818 49.4682 14.5776 49.1973 14.5776H49.1182V14.3984C49.3473 14.3984 49.5807 14.4234 49.8098 14.4234C49.989 14.4234 50.164 14.3984 50.3432 14.3984L53.0181 17.4151Z" fill="#211E1F"/>
<path d="M53.3643 18.7166L53.1185 18.7083L50.0685 15.3083V17.7166C50.0768 18.2375 50.156 18.3875 50.606 18.3916H50.7352V18.4166V18.625H50.7102C50.4518 18.625 50.1935 18.6 49.9352 18.6C49.6685 18.6 49.3894 18.625 49.1185 18.625H49.0894V18.6V18.3916H49.1185H49.2019C49.5977 18.3916 49.7102 18.1333 49.7144 17.6541V15.125C49.7144 14.8042 49.4519 14.6125 49.1935 14.6083H49.0894V14.5833V14.375H49.1185C49.3477 14.375 49.581 14.4 49.8102 14.4C49.9852 14.4 50.1602 14.375 50.3643 14.3833L53.006 17.3583V15.1458C53.006 14.6667 52.6852 14.6083 52.5102 14.6083H52.3518V14.5833V14.375H52.3768C52.6602 14.375 52.9393 14.4 53.2185 14.4C53.4643 14.4 53.7102 14.375 53.956 14.375H53.981V14.4V14.6042H53.956H53.8685C53.6227 14.6125 53.3643 14.6333 53.3602 15.3417V18.075C53.3602 18.2833 53.3643 18.4916 53.3977 18.6791L53.4018 18.7083L53.3643 18.7166ZM53.1352 18.6625H53.331C53.306 18.4833 53.2977 18.2833 53.2977 18.0833V15.35C53.2977 14.6292 53.6018 14.5625 53.8602 14.5583H53.9227V14.4333C53.6852 14.4333 53.4477 14.4583 53.2102 14.4583C52.9352 14.4583 52.6643 14.4375 52.3935 14.4333V14.5583H52.5018C52.6852 14.5583 53.0518 14.6417 53.0518 15.15L53.0435 17.4208L53.031 17.4333L53.0143 17.4541L50.3393 14.4333C50.1602 14.4333 49.9852 14.4583 49.806 14.4583C49.5852 14.4583 49.3602 14.4375 49.1394 14.4333V14.5583H49.1935C49.4769 14.5583 49.7643 14.775 49.7643 15.125V17.6541C49.7643 18.1375 49.6269 18.4458 49.1977 18.4458H49.1394V18.5708C49.3977 18.5708 49.6685 18.55 49.931 18.55C50.1852 18.55 50.431 18.5708 50.681 18.5708V18.4458H50.606C50.131 18.4458 50.0143 18.2375 50.0143 17.7166V15.175L53.1352 18.6625ZM53.0185 17.4166L53.0352 17.4L53.0185 17.4166ZM53.0018 17.4041L52.9977 17.3958L53.0018 17.4041Z" fill="#211E1F"/>
<path d="M54.9223 17.7397C54.8598 17.9439 54.789 18.1022 54.789 18.2064C54.789 18.3855 55.0432 18.4147 55.239 18.4147H55.3057V18.598C55.064 18.5855 54.8182 18.573 54.5765 18.573C54.3598 18.573 54.1473 18.5855 53.9307 18.598V18.4147H53.9682C54.2015 18.4147 54.4015 18.2772 54.489 18.023L55.4515 15.2647C55.5307 15.0439 55.639 14.7439 55.6765 14.5189C55.8681 14.4522 56.1098 14.3314 56.2223 14.2605C56.239 14.2564 56.2515 14.248 56.2723 14.248C56.289 14.248 56.3015 14.248 56.314 14.2689C56.3306 14.3147 56.3473 14.373 56.3681 14.4189L57.4723 17.5605C57.5431 17.7689 57.614 17.9939 57.6931 18.173C57.764 18.3397 57.8931 18.4147 58.089 18.4147H58.1223V18.598C57.8515 18.5855 57.5806 18.573 57.2931 18.573C56.9973 18.573 56.6973 18.5855 56.389 18.598V18.4147H56.4556C56.5931 18.4147 56.8265 18.3897 56.8265 18.2397C56.8265 18.1605 56.7723 17.998 56.7056 17.8064L56.4723 17.1105H55.1098L54.9223 17.7397ZM55.7973 15.0772H55.7848L55.2265 16.7772H56.3515L55.7973 15.0772Z" fill="#211E1F"/>
<path d="M58.1222 18.626C57.8514 18.6135 57.5805 18.601 57.2972 18.601C57.0014 18.601 56.7055 18.6135 56.3972 18.626H56.368V18.601V18.3927H56.393H56.4597C56.5972 18.3927 56.8055 18.3593 56.8055 18.2468C56.8055 18.1802 56.7514 18.0135 56.6889 17.8219L56.4597 17.1427H55.1347L54.9472 17.751C54.8847 17.9552 54.8139 18.1135 54.8139 18.2135C54.8139 18.3593 55.0389 18.3968 55.2389 18.3968H55.3305V18.4218V18.6302H55.3014C55.0597 18.6177 54.8139 18.6052 54.5764 18.6052C54.3597 18.6052 54.143 18.6177 53.9305 18.6302H53.9014V18.6052V18.3968H53.9264H53.9639C54.1889 18.3968 54.3722 18.2677 54.4597 18.026L55.4222 15.2677C55.5014 15.0427 55.6097 14.7469 55.6597 14.5052C55.8472 14.4427 56.0889 14.3219 56.2055 14.2469C56.2222 14.2427 56.2389 14.2344 56.2639 14.2344C56.2764 14.2344 56.3097 14.2385 56.3305 14.2677C56.3472 14.3177 56.368 14.3719 56.3847 14.4177L57.493 17.5594C57.5638 17.7719 57.6347 17.9927 57.7138 18.1677C57.7847 18.3302 57.893 18.3927 58.0888 18.3927H58.1513V18.4177V18.626H58.1222ZM56.418 18.5718C56.7139 18.5635 57.0055 18.551 57.293 18.551C57.5722 18.551 57.8347 18.5635 58.093 18.5718V18.4468H58.0847C57.8805 18.4468 57.7389 18.3677 57.6639 18.1885C57.5847 18.0052 57.5139 17.7844 57.443 17.5719L56.3347 14.4302C56.318 14.3844 56.2972 14.326 56.2847 14.2844C56.2805 14.2802 56.2805 14.2802 56.2764 14.2802H56.2639C56.2514 14.2802 56.243 14.2844 56.2305 14.2885C56.1139 14.3635 55.8722 14.4802 55.6972 14.5302C55.6597 14.7594 55.5514 15.0594 55.4722 15.2802L54.5097 18.0385C54.418 18.301 54.2097 18.4468 53.9639 18.4468H53.9555V18.5718C54.1597 18.5635 54.368 18.551 54.5764 18.551C54.8097 18.551 55.0472 18.5635 55.2764 18.5718V18.4468H55.2389C55.043 18.4427 54.7722 18.4218 54.7639 18.2093C54.7639 18.0885 54.8389 17.9344 54.8972 17.7344L54.9222 17.7427L54.8972 17.7344L55.0972 17.0927H56.4972L56.7389 17.8052C56.8055 17.9968 56.8597 18.1593 56.8597 18.2468C56.8514 18.4302 56.5972 18.4427 56.4597 18.4468H56.418V18.5718ZM55.1889 16.8052L55.7639 15.051H55.7847H55.7972V15.076H55.7889H55.7972V15.051H55.8139L56.3847 16.8052H55.1889ZM55.2639 16.7552H56.3139L55.7889 15.1469L55.2639 16.7552ZM55.7722 15.0885L55.7847 15.0844L55.7722 15.0885Z" fill="#211E1F"/>
<path d="M58.3893 14.7043C57.9394 14.7043 57.9227 14.8126 57.831 15.2501H57.6519C57.6769 15.0835 57.706 14.9126 57.7269 14.7376C57.7519 14.571 57.7602 14.4001 57.7602 14.2293H57.906C57.956 14.4085 58.106 14.4043 58.2643 14.4043H61.3643C61.5268 14.4043 61.6768 14.4001 61.6893 14.2168L61.831 14.2418C61.806 14.4043 61.7852 14.5668 61.7643 14.7293C61.7518 14.8918 61.7518 15.0543 61.7518 15.2168L61.5727 15.2835C61.5602 15.0626 61.531 14.7043 61.1268 14.7043H60.1393V17.9001C60.1393 18.3626 60.3518 18.4168 60.6393 18.4168H60.7518V18.6001C60.5185 18.6001 60.0977 18.5751 59.7727 18.5751C59.4143 18.5751 58.9893 18.6001 58.756 18.6001V18.4168H58.8685C59.1977 18.4168 59.3685 18.3876 59.3685 17.9126V14.7043H58.3893Z" fill="#211E1F"/>
<path d="M60.7559 18.6269C60.5184 18.6269 60.0975 18.6019 59.7767 18.6019C59.4184 18.6019 58.9975 18.6269 58.76 18.6269H58.735V18.6019V18.3936H58.76H58.8726C59.2017 18.3853 59.335 18.3811 59.3434 17.9144V14.7311H58.3851V14.7061V14.6811H59.3975V17.9186C59.3975 18.4019 59.2017 18.4478 58.8726 18.4478H58.785V18.5769C59.0225 18.5728 59.4267 18.5519 59.7767 18.5519C60.0892 18.5519 60.4934 18.5728 60.7309 18.5769V18.4478H60.6434C60.3559 18.4478 60.1184 18.3769 60.1184 17.9061V14.6811H61.1309C61.535 14.6811 61.585 15.0269 61.5975 15.2478L61.7309 15.2019C61.7309 15.0436 61.7309 14.8894 61.7434 14.7311C61.76 14.577 61.7809 14.4228 61.8059 14.2686L61.7142 14.252C61.685 14.427 61.5184 14.4353 61.3684 14.4353H58.2684H58.2392C58.0976 14.4353 57.9434 14.427 57.8892 14.2603H57.7892C57.7892 14.427 57.7767 14.5895 57.7517 14.7478C57.7351 14.9144 57.7059 15.0728 57.6851 15.2311H57.8142C57.8934 14.8103 57.9476 14.6769 58.3934 14.6811V14.7061V14.7311C57.9476 14.7394 57.9601 14.8144 57.8601 15.2561L57.8559 15.2769H57.8351H57.6226L57.6267 15.2478C57.6517 15.0769 57.6809 14.9103 57.6976 14.7353C57.7226 14.5686 57.7351 14.402 57.7351 14.227V14.2061H57.7601H57.9226L57.9267 14.227C57.9684 14.377 58.0767 14.3811 58.2309 14.3811H58.2601H61.36C61.5267 14.377 61.6475 14.377 61.6559 14.2186V14.1895L61.685 14.1936L61.8559 14.2186L61.8517 14.2436C61.8267 14.4061 61.8059 14.5686 61.785 14.7269C61.7725 14.8853 61.7725 15.0519 61.7725 15.2103V15.2311L61.7559 15.2394L61.5434 15.3186V15.2853C61.5267 15.0603 61.5059 14.7311 61.1225 14.7311H60.1642V17.9019C60.1725 18.3561 60.3517 18.3853 60.635 18.3936H60.7767V18.4186V18.6269H60.7559Z" fill="#211E1F"/>
<path d="M62.0522 18.4207H62.1356C62.3522 18.4207 62.5814 18.3915 62.5814 18.079V14.929C62.5814 14.6165 62.3564 14.5874 62.1356 14.5874H62.0522V14.4082C62.2856 14.4082 62.6481 14.4332 62.9397 14.4332C63.2397 14.4332 63.6022 14.4082 63.8856 14.4082V14.5874H63.8022C63.5856 14.5874 63.3564 14.6165 63.3564 14.929V18.079C63.3564 18.3915 63.5856 18.4207 63.8022 18.4207H63.8856V18.604C63.5981 18.604 63.2356 18.579 62.9356 18.579C62.6397 18.579 62.2856 18.604 62.0522 18.604V18.4207Z" fill="#211E1F"/>
<path d="M63.8845 18.625C63.5928 18.625 63.2345 18.6 62.9345 18.6C62.6386 18.6 62.2845 18.625 62.0511 18.625H62.0261V18.6V18.4166V18.3916H62.0511H62.1345C62.3511 18.3875 62.5511 18.3708 62.5511 18.075V14.925C62.5511 14.6333 62.3511 14.6125 62.1345 14.6083H62.022V14.5833V14.375H62.047C62.2803 14.375 62.6428 14.3958 62.9345 14.3958C63.2345 14.3958 63.5928 14.375 63.8803 14.375H63.9053V14.4V14.6042H63.8803H63.797C63.5761 14.6083 63.3803 14.6292 63.3761 14.9208V18.0708C63.3803 18.3666 63.5761 18.3833 63.797 18.3875H63.9053V18.4125V18.6208L63.8845 18.625ZM63.8553 18.575V18.4458H63.797C63.5803 18.4458 63.3261 18.4083 63.3261 18.075V14.925C63.3261 14.5917 63.5803 14.5542 63.797 14.5542H63.8553V14.425C63.5761 14.425 63.2303 14.45 62.9386 14.45C62.6553 14.45 62.3095 14.4292 62.0761 14.425V14.5542H62.1345C62.347 14.5542 62.6053 14.5917 62.6053 14.925V18.075C62.6053 18.4041 62.347 18.4458 62.1345 18.4458H62.0761V18.575C62.3095 18.5708 62.647 18.55 62.9345 18.55C63.2261 18.55 63.572 18.5708 63.8553 18.575Z" fill="#211E1F"/>
<path d="M66.2811 14.3164C67.5603 14.3164 68.5811 15.1122 68.5811 16.3914C68.5811 17.7747 67.5894 18.6914 66.3103 18.6914C65.0353 18.6914 64.0645 17.8247 64.0645 16.5331C64.0645 15.2831 65.0311 14.3164 66.2811 14.3164ZM66.3728 18.4247C67.5394 18.4247 67.7394 17.3956 67.7394 16.5206C67.7394 15.6414 67.2644 14.5789 66.2686 14.5789C65.2186 14.5789 64.9061 15.5164 64.9061 16.3206C64.9061 17.3956 65.3978 18.4247 66.3728 18.4247Z" fill="#211E1F"/>
<path d="M64.0396 16.531C64.0437 15.2685 65.0187 14.2893 66.2812 14.2852V14.3102V14.3352C65.0479 14.3352 64.0895 15.2893 64.0895 16.5268C64.0937 17.806 65.052 18.656 66.3145 18.656C67.5812 18.656 68.5562 17.7476 68.5604 16.381C68.5604 15.1185 67.552 14.3352 66.2854 14.3352V14.3102V14.2852C67.577 14.2852 68.6103 15.0893 68.6145 16.3851C68.6145 17.781 67.6104 18.7101 66.3187 18.7143C65.027 18.7101 64.0396 17.8351 64.0396 16.531ZM64.8812 16.3185C64.8812 15.5101 65.1979 14.5477 66.2729 14.5477C67.2937 14.5518 67.7687 15.6351 67.7687 16.5143C67.7687 17.3893 67.5604 18.4435 66.3729 18.4435V18.4185V18.3935C67.5145 18.3935 67.7145 17.3893 67.7145 16.5143C67.7145 15.6435 67.2437 14.6018 66.2687 14.5977C65.2395 14.5977 64.9312 15.5143 64.9312 16.3143C64.9312 17.3851 65.4187 18.3893 66.3729 18.3935V18.4185V18.4435C65.3729 18.4476 64.8812 17.4018 64.8812 16.3185Z" fill="#211E1F"/>
<path d="M72.6302 17.4151L72.6427 17.4026V15.1484C72.6427 14.6568 72.301 14.5818 72.1177 14.5818H71.9885V14.4026C72.2719 14.4026 72.5469 14.4276 72.8302 14.4276C73.076 14.4276 73.3218 14.4026 73.5718 14.4026V14.5818H73.4802C73.2302 14.5818 72.9468 14.6276 72.9468 15.3443V18.0776C72.9468 18.2859 72.951 18.4984 72.9843 18.6859H72.7552L69.6594 15.2359V17.7109C69.6594 18.2317 69.7594 18.4151 70.2219 18.4151H70.326V18.5984C70.0677 18.5984 69.8094 18.5734 69.551 18.5734C69.2802 18.5734 69.0052 18.5984 68.7344 18.5984V18.4151H68.8177C69.2344 18.4151 69.3594 18.1317 69.3594 17.6526V15.1193C69.3594 14.7818 69.0844 14.5776 68.8135 14.5776H68.7344V14.3984C68.9635 14.3984 69.1969 14.4234 69.426 14.4234C69.6052 14.4234 69.7802 14.3984 69.9594 14.3984L72.6302 17.4151Z" fill="#211E1F"/>
<path d="M72.981 18.7166L72.731 18.7083L69.681 15.3083V17.7166C69.6894 18.2375 69.7685 18.3875 70.2185 18.3916H70.3477V18.4166V18.625H70.3227C70.0644 18.625 69.806 18.6 69.5477 18.6C69.2769 18.6 69.0019 18.625 68.7311 18.625H68.7061V18.6V18.3916H68.7311H68.8144C69.2102 18.3916 69.3227 18.1375 69.331 17.6583V15.125C69.331 14.8042 69.0686 14.6125 68.8102 14.6083H68.7061V14.5833V14.375H68.7311C68.9602 14.375 69.1977 14.4 69.4227 14.4C69.6019 14.4 69.7727 14.375 69.9769 14.3875L72.6185 17.3625V15.1542C72.6185 14.675 72.2977 14.6167 72.1227 14.6125H71.9644V14.5875V14.3792H71.9935C72.2769 14.3792 72.5519 14.4 72.831 14.4C73.0769 14.4 73.3227 14.3792 73.5727 14.3792H73.5977V14.4042V14.6083H73.5727H73.481C73.2352 14.6167 72.9769 14.6375 72.9727 15.3458V18.0791C72.9727 18.2875 72.9769 18.5 73.006 18.6833L73.0102 18.7125L72.981 18.7166ZM72.7519 18.6625H72.9477C72.9227 18.4833 72.9185 18.2833 72.9185 18.0833V15.35C72.9185 14.6292 73.2227 14.5625 73.481 14.5583H73.5477V14.4333C73.3102 14.4333 73.0727 14.4583 72.831 14.4583C72.556 14.4583 72.2894 14.4375 72.0185 14.4333V14.5583H72.1227C72.3102 14.5583 72.6727 14.6417 72.6727 15.15L72.6644 17.4208L72.6519 17.4333L72.631 17.4541L69.956 14.4333C69.781 14.4333 69.6019 14.4583 69.4227 14.4583C69.2019 14.4583 68.9769 14.4375 68.7561 14.4333V14.5583H68.8102C69.0936 14.5583 69.381 14.775 69.381 15.125V17.6583C69.381 18.1375 69.2477 18.4458 68.8144 18.45H68.7561V18.5791C69.0186 18.5791 69.2852 18.5583 69.5477 18.5583C69.7977 18.5583 70.0477 18.5791 70.2977 18.5791V18.4541H70.2185C69.7477 18.4541 69.631 18.2458 69.631 17.725V15.1833L72.7519 18.6625ZM72.631 17.4166L72.6519 17.4L72.631 17.4166ZM72.6185 17.4041L72.6144 17.3958L72.6185 17.4041Z" fill="#211E1F"/>
<path d="M74.5349 17.7397C74.4766 17.9439 74.4016 18.1022 74.4016 18.2064C74.4016 18.3855 74.6557 18.4147 74.8516 18.4147H74.9182V18.598C74.6766 18.5855 74.4307 18.573 74.1891 18.573C73.9724 18.573 73.7557 18.5855 73.5391 18.598V18.4147H73.5724C73.8099 18.4147 74.0057 18.2772 74.0974 18.023L75.0599 15.2647C75.1391 15.0439 75.2474 14.7439 75.2807 14.5189C75.4724 14.4522 75.714 14.3314 75.8265 14.2605C75.8432 14.2564 75.8557 14.248 75.8724 14.248C75.889 14.248 75.9015 14.248 75.914 14.2689C75.9307 14.3147 75.9515 14.373 75.9682 14.4189L77.0724 17.5605C77.1432 17.7689 77.2182 17.9939 77.2932 18.173C77.364 18.3397 77.4932 18.4147 77.689 18.4147H77.7265V18.598C77.4557 18.5855 77.1849 18.573 76.8974 18.573C76.6015 18.573 76.3015 18.5855 75.9974 18.598V18.4147H76.064C76.2015 18.4147 76.4349 18.3897 76.4349 18.2397C76.4349 18.1605 76.3807 17.998 76.314 17.8064L76.0807 17.1105H74.7182L74.5349 17.7397ZM75.414 15.0772H75.4015L74.8432 16.7772H75.9682L75.414 15.0772Z" fill="#211E1F"/>
<path d="M77.7347 18.6248C77.4639 18.6123 77.193 18.5998 76.9055 18.5998C76.6139 18.5998 76.3139 18.6123 76.0055 18.6248H75.9805V18.5957V18.3873H76.0055H76.0722C76.2139 18.3873 76.418 18.354 76.418 18.2415C76.418 18.1748 76.3639 18.0082 76.2972 17.8165L76.068 17.1374H74.7431L74.5556 17.7457C74.4972 17.9498 74.4222 18.1082 74.4264 18.2082C74.4264 18.354 74.6514 18.3915 74.8514 18.3915H74.9431V18.4165V18.6248H74.9181C74.6764 18.6123 74.4306 18.5998 74.1931 18.5998C73.9764 18.5998 73.7597 18.6123 73.5431 18.6248H73.5181V18.5957V18.3873H73.5431H73.5764C73.8014 18.3873 73.9889 18.2582 74.0764 18.0123L75.0389 15.254C75.1139 15.029 75.2222 14.7332 75.2764 14.4915C75.4639 14.4249 75.7055 14.304 75.8222 14.2332C75.8389 14.229 75.8555 14.2207 75.8805 14.2207C75.8972 14.2207 75.9264 14.2207 75.9472 14.254C75.9639 14.2999 75.9805 14.354 76.0014 14.404L77.1055 17.5457C77.1764 17.7582 77.2514 17.979 77.3264 18.1582C77.3972 18.3165 77.5055 18.379 77.6972 18.3832H77.7597V18.4082V18.6165L77.7347 18.6248ZM76.0347 18.5707C76.3305 18.5582 76.6264 18.5498 76.9097 18.5498C77.1889 18.5498 77.4514 18.5623 77.7139 18.5707V18.4457H77.7055C77.5014 18.4457 77.3597 18.3665 77.2847 18.1873C77.2055 18.004 77.1347 17.7832 77.0639 17.5707L75.9597 14.429C75.943 14.3832 75.9222 14.3249 75.9097 14.2874C75.9055 14.279 75.9055 14.279 75.9014 14.279H75.8889C75.8764 14.279 75.868 14.2832 75.8555 14.2874C75.7389 14.3624 75.4972 14.479 75.318 14.529C75.2806 14.7582 75.1722 15.054 75.0931 15.279L74.1306 18.0373C74.0389 18.2998 73.8306 18.4457 73.5847 18.4457H73.5764V18.5707C73.7847 18.5623 73.9889 18.5498 74.1972 18.5498C74.4306 18.5498 74.6681 18.5623 74.8972 18.5707V18.4457H74.8556C74.6597 18.4415 74.3847 18.4207 74.3806 18.2082C74.3806 18.0873 74.4556 17.9373 74.5139 17.7332L74.5389 17.7415L74.5139 17.7332L74.7139 17.0915H76.1139L76.3555 17.804C76.4222 17.9957 76.4764 18.1582 76.4764 18.2457C76.468 18.429 76.2139 18.4415 76.0764 18.4457H76.0389L76.0347 18.5707ZM74.8056 16.804L75.3805 15.0499H75.3972H75.4097V15.0749H75.4014H75.4097V15.0499H75.4305L75.9972 16.804H74.8056ZM74.8764 16.754H75.9264L75.4055 15.1457L74.8764 16.754ZM75.3889 15.0874L75.4014 15.0832L75.3889 15.0874Z" fill="#211E1F"/>
<path d="M79.2514 18.0123C79.2514 18.254 79.4181 18.3248 79.6098 18.3498C79.8556 18.3665 80.1264 18.3665 80.4056 18.3373C80.6556 18.3082 80.8722 18.1623 80.9806 18.0123C81.0764 17.879 81.1306 17.7123 81.1681 17.579H81.3431C81.2764 17.9207 81.1931 18.2582 81.1222 18.5998C80.5931 18.5998 80.0639 18.5748 79.5348 18.5748C79.0056 18.5748 78.4764 18.5998 77.9473 18.5998V18.4165H78.0306C78.2473 18.4165 78.4848 18.3873 78.4848 18.0165V14.929C78.4848 14.6165 78.2514 14.5874 78.0306 14.5874H77.9473V14.4082C78.2639 14.4082 78.5764 14.4332 78.8973 14.4332C79.2056 14.4332 79.5056 14.4082 79.8098 14.4082V14.5874H79.6598C79.4306 14.5874 79.2514 14.5957 79.2514 14.9124V18.0123Z" fill="#211E1F"/>
<path d="M81.1182 18.6247C80.589 18.6247 80.0598 18.5997 79.5349 18.5997C79.0057 18.5997 78.4765 18.6247 77.9474 18.6247H77.9224V18.5997V18.3914H77.9474H78.0307C78.2474 18.3872 78.4557 18.3705 78.4557 18.0164V14.9289C78.4515 14.6372 78.2474 14.6164 78.0307 14.6122H77.9224V14.5872V14.3789H77.9474C78.2682 14.3789 78.5807 14.3997 78.8974 14.3997C79.2015 14.3997 79.5015 14.3789 79.8099 14.3789H79.8349V14.4039V14.6081H79.8099H79.6599C79.4265 14.6164 79.2807 14.6039 79.2765 14.9081V18.008C79.2765 18.233 79.4265 18.2914 79.614 18.3205C79.7182 18.3289 79.8307 18.333 79.9474 18.333C80.0932 18.333 80.2473 18.3247 80.4015 18.308C80.6473 18.2789 80.8557 18.1372 80.9598 17.9955C81.0515 17.8664 81.1057 17.7039 81.1432 17.5706L81.1473 17.5497H81.1682H81.3765L81.3723 17.5831C81.3057 17.9247 81.2223 18.2622 81.1473 18.6039L81.1432 18.6247H81.1182ZM81.0973 18.5747C81.1682 18.2497 81.2473 17.9289 81.3098 17.6039H81.1848C81.1473 17.7331 81.0932 17.8955 81.0015 18.0289C80.889 18.183 80.6682 18.333 80.4057 18.3622C80.2473 18.3789 80.0932 18.3872 79.9432 18.3872C79.8265 18.3872 79.714 18.383 79.6057 18.3747C79.4099 18.3539 79.2224 18.2705 79.2224 18.0122V14.9122C79.2224 14.5789 79.4349 14.5622 79.6557 14.5622H79.7807V14.4331C79.4849 14.4331 79.1932 14.4581 78.8932 14.4581C78.5807 14.4581 78.2765 14.4372 77.9682 14.4331V14.5622H78.0265C78.2432 14.5622 78.5015 14.5997 78.5015 14.9289V18.0164C78.5015 18.4039 78.239 18.4455 78.0265 18.4455H77.9682V18.5705C78.489 18.5705 79.0057 18.5497 79.5307 18.5497C80.0557 18.5497 80.5765 18.5705 81.0973 18.5747Z" fill="#211E1F"/>
<path d="M81.2681 14.2344C81.6305 14.2344 81.9013 14.5135 81.9013 14.8677C81.9013 15.2219 81.6305 15.4969 81.2681 15.4969C80.9056 15.4969 80.6348 15.2219 80.6348 14.8677C80.6348 14.5135 80.9056 14.2344 81.2681 14.2344ZM81.2681 15.3844C81.5514 15.3844 81.768 15.1427 81.768 14.8719C81.768 14.601 81.5555 14.3552 81.2681 14.3552C80.9847 14.3552 80.7639 14.601 80.7639 14.8719C80.7681 15.1427 80.9847 15.3844 81.2681 15.3844ZM80.9556 15.2052V15.1719C81.0347 15.1594 81.0472 15.1635 81.0472 15.1135V14.6469C81.0472 14.5802 81.0389 14.5594 80.9597 14.5635V14.5302H81.2847C81.3972 14.5302 81.4972 14.5844 81.4972 14.6969C81.4972 14.7927 81.4347 14.8594 81.3472 14.8885L81.4514 15.0344C81.5014 15.101 81.5555 15.1635 81.5889 15.1844V15.2052H81.4639C81.4055 15.2052 81.3514 15.0802 81.2347 14.9135H81.1639V15.1219C81.1639 15.1635 81.1764 15.1594 81.2556 15.1719V15.2052H80.9556ZM81.1681 14.8719H81.243C81.3264 14.8719 81.3639 14.8094 81.3639 14.7094C81.3639 14.6094 81.3055 14.5719 81.2389 14.5719H81.1681V14.8719Z" fill="#211E1F"/>
</svg>
