<svg width="31" height="24" viewBox="0 0 31 24" fill="none" xmlns="http://www.w3.org/2000/svg">
<path d="M29.4359 23.613V23.6732H29.4945C29.4945 23.6732 29.4945 23.6732 29.5531 23.6732C29.4945 23.613 29.4945 23.613 29.4359 23.613ZM29.4945 23.5528H29.5531V23.613V23.6732H29.4945L29.5531 23.7334H29.4945H29.4359V23.7936H29.3773V23.5528H29.4945ZM29.4945 23.9141H29.5531C29.5531 23.9141 29.6117 23.9141 29.6117 23.8538C29.6117 23.7936 29.6703 23.7936 29.6703 23.7936V23.7334V23.6732C29.6703 23.6732 29.6703 23.613 29.6117 23.613C29.5531 23.613 29.5531 23.5528 29.5531 23.4926H29.4945H29.4359C29.4359 23.4926 29.3773 23.4926 29.3773 23.5528C29.3773 23.613 29.3187 23.613 29.3187 23.613V23.6732V23.7334C29.3187 23.7334 29.3188 23.7936 29.3773 23.7936C29.4359 23.7936 29.4359 23.8538 29.4359 23.8538C29.4359 23.9141 29.4359 23.9141 29.4945 23.9141ZM29.4945 23.4324C29.5531 23.4324 29.5531 23.4324 29.6117 23.4324C29.6703 23.4324 29.6703 23.4926 29.6703 23.4926L29.7289 23.5528C29.7289 23.5528 29.7289 23.613 29.7289 23.6732C29.7289 23.7334 29.7289 23.7334 29.7289 23.7936C29.7289 23.8538 29.6703 23.8538 29.6703 23.8538L29.6117 23.9141C29.5531 23.9141 29.5531 23.9141 29.4945 23.9141C29.4359 23.9141 29.4359 23.9141 29.3773 23.9141C29.3188 23.9141 29.3187 23.8538 29.3187 23.8538L29.2602 23.7936C29.2602 23.7936 29.2602 23.7334 29.2602 23.6732C29.2602 23.613 29.2602 23.613 29.2602 23.5528C29.2602 23.4926 29.3187 23.4926 29.3187 23.4926L29.3773 23.4324C29.3773 23.4324 29.4359 23.4324 29.4945 23.4324ZM6.64586 22.5292C6.64586 22.1077 6.9388 21.7464 7.40749 21.7464C7.87618 21.7464 8.16911 22.1077 8.16911 22.5292C8.16911 22.9507 7.87618 23.3119 7.40749 23.3119C6.9388 23.3721 6.64586 23.0109 6.64586 22.5292ZM8.6378 22.5292V21.2647H8.11052V21.626C7.93476 21.3851 7.64183 21.2045 7.29031 21.2045C6.58728 21.2045 6.06 21.7464 6.06 22.5292C6.06 23.3119 6.58728 23.8538 7.29031 23.8538C7.64183 23.8538 7.87618 23.7334 8.05193 23.4926V23.7936H8.57921V22.5292H8.6378ZM26.6238 22.5292C26.6238 22.1077 26.9167 21.7464 27.3854 21.7464C27.8541 21.7464 28.147 22.1077 28.147 22.5292C28.147 22.9507 27.8541 23.3119 27.3854 23.3119C26.8581 23.3721 26.6238 23.0109 26.6238 22.5292ZM28.5571 22.5292V20.2411H28.0299V21.626C27.8541 21.3851 27.6197 21.2045 27.2682 21.2045C26.5652 21.2045 26.0379 21.8066 26.0379 22.5292C26.0379 23.3119 26.5652 23.8538 27.2682 23.8538C27.6197 23.8538 27.8541 23.7334 28.0299 23.4926V23.7936H28.5571V22.5292ZM15.1995 21.7464C15.551 21.7464 15.7853 21.9872 15.8439 22.3485H14.555C14.6136 21.9872 14.8479 21.7464 15.1995 21.7464ZM15.258 21.2045C14.555 21.2045 14.0277 21.7464 14.0277 22.5292C14.0277 23.3119 14.555 23.8538 15.258 23.8538C15.6096 23.8538 15.9611 23.7334 16.254 23.4926L16.0197 23.0711C15.7853 23.2517 15.551 23.3119 15.3166 23.3119C14.9651 23.3119 14.6722 23.1313 14.6136 22.7098H16.4298C16.4298 22.6496 16.4298 22.5894 16.4298 22.5292C16.3712 21.7464 15.9025 21.2045 15.258 21.2045ZM21.6439 22.5292C21.6439 22.1077 21.9369 21.7464 22.4056 21.7464C22.8743 21.7464 23.1672 22.1077 23.1672 22.5292C23.1672 22.9507 22.8743 23.3119 22.4056 23.3119C21.9369 23.3721 21.6439 23.0109 21.6439 22.5292ZM23.6359 22.5292V21.2647H23.1086V21.626C22.9328 21.3851 22.6985 21.2045 22.347 21.2045C21.6439 21.2045 21.1167 21.7464 21.1167 22.5292C21.1167 23.3119 21.6439 23.8538 22.347 23.8538C22.6985 23.8538 22.9328 23.7334 23.1086 23.4926V23.7936H23.6359V22.5292ZM18.656 22.5292C18.656 23.3119 19.1833 23.8538 19.9449 23.8538C20.2965 23.8538 20.5308 23.7936 20.8237 23.5528L20.5894 23.1313C20.4136 23.2517 20.1793 23.3721 19.9449 23.3721C19.5348 23.3721 19.1833 23.0711 19.1833 22.5894C19.1833 22.1077 19.4763 21.8066 19.9449 21.8066C20.1793 21.8066 20.4136 21.8668 20.5894 22.0475L20.8237 21.626C20.5894 21.3249 20.355 21.2045 19.9449 21.2045C19.1833 21.2045 18.656 21.8066 18.656 22.5292ZM25.5106 21.2045C25.2177 21.2045 24.9834 21.3249 24.8662 21.5658V21.2647H24.3389V23.7936H24.8662V22.4087C24.8662 21.9872 25.042 21.7464 25.3935 21.7464C25.5106 21.7464 25.6278 21.7464 25.745 21.8066L25.9207 21.3249C25.745 21.2647 25.6278 21.2045 25.5106 21.2045ZM11.2742 21.5055C11.0398 21.3249 10.6883 21.2647 10.2782 21.2647C9.63376 21.2647 9.28224 21.5658 9.28224 22.0475C9.28224 22.4689 9.57518 22.7098 10.1025 22.77L10.3368 22.8302C10.6297 22.8904 10.7469 22.9507 10.7469 23.0711C10.7469 23.2517 10.5711 23.3721 10.161 23.3721C9.80952 23.3721 9.51659 23.2517 9.34083 23.1313L9.10649 23.5528C9.39942 23.7936 9.75093 23.8538 10.161 23.8538C10.8641 23.8538 11.2742 23.4926 11.2742 23.0109C11.2742 22.5894 10.9812 22.3485 10.3954 22.2883L10.161 22.2281C9.92669 22.1679 9.75094 22.1679 9.75094 21.9872C9.75094 21.8066 9.9267 21.6862 10.2196 21.6862C10.5126 21.6862 10.8055 21.8066 10.9812 21.927L11.2742 21.5055ZM18.1288 21.2045C17.8358 21.2045 17.6015 21.3249 17.4843 21.5658V21.2647H16.957V23.7936H17.4843V22.4087C17.4843 21.9872 17.6601 21.7464 18.0116 21.7464C18.1288 21.7464 18.2459 21.7464 18.3631 21.8066L18.5389 21.2647C18.3631 21.2647 18.2459 21.2045 18.1288 21.2045ZM13.559 21.2647H12.6802V20.4819H12.153V21.2647H11.6843V21.8066H12.153V22.9507C12.153 23.5528 12.3873 23.8538 13.0318 23.8538C13.2661 23.8538 13.5005 23.7936 13.6762 23.6732L13.5005 23.1915C13.3247 23.3119 13.1489 23.3119 13.0318 23.3119C12.7388 23.3119 12.6802 23.1313 12.6802 22.8904V21.8066H13.559V21.2647ZM5.6499 23.7936V22.2281C5.6499 21.626 5.29838 21.2045 4.71252 21.2045C4.41959 21.2045 4.06807 21.3249 3.83372 21.626C3.65796 21.3851 3.36503 21.2045 3.01352 21.2045C2.77917 21.2045 2.48624 21.2647 2.31048 21.5658V21.2647H1.7832V23.7936H2.31048V22.4087C2.31048 21.9872 2.54483 21.7464 2.89634 21.7464C3.24786 21.7464 3.42362 21.9872 3.42362 22.4087V23.7936H3.9509V22.4087C3.9509 21.9872 4.18524 21.7464 4.53676 21.7464C4.88828 21.7464 5.06404 21.9872 5.06404 22.4087V23.7936H5.6499Z" fill="#231F20"/>
<path d="M29.7662 15.4395V15.0769H29.6487L29.5311 15.3186L29.4135 15.0769H29.2959V15.4395H29.3547V15.1373L29.5311 15.4395H29.5899L29.7075 15.1978V15.4395H29.7662ZM29.1783 15.4395V15.1373H29.2959V15.0769H29.002V15.1373H29.1195V15.4395H29.1783Z" fill="#F79410"/>
<path d="M19.1713 17.0428H11.1099V2.1582H19.1713V17.0428Z" fill="#FF5F00"/>
<path d="M11.6255 9.57359C11.6255 6.56295 12.973 3.85337 15.1407 2.1072C13.5589 0.842728 11.5669 0.0599597 9.45781 0.0599597C4.36081 0.0599597 0.259766 4.27486 0.259766 9.51338C0.259766 14.7519 4.36081 18.9668 9.45781 18.9668C11.6255 18.9668 13.5589 18.184 15.1407 16.9196C12.973 15.2938 11.6255 12.5842 11.6255 9.57359Z" fill="#EB001B"/>
<path d="M30.045 9.57393C30.045 14.8124 25.944 19.0273 20.8469 19.0273C18.6792 19.0273 16.7459 18.2446 15.1641 16.9801C17.3318 15.2339 18.6792 12.5846 18.6792 9.51372C18.6792 6.44286 17.3318 3.7935 15.1641 2.04732C16.7459 0.782854 18.7378 8.73417e-05 20.8469 8.73417e-05C25.8854 0.120514 30.045 4.33541 30.045 9.57393Z" fill="#F79E1B"/>
</svg>
