<?xml version="1.0" encoding="utf-8"?>
<!-- Generator: Adobe Illustrator 24.0.2, SVG Export Plug-In . SVG Version: 6.00 Build 0)  -->
<svg version="1.1" id="Capa_1" xmlns="http://www.w3.org/2000/svg" xmlns:xlink="http://www.w3.org/1999/xlink" x="0px" y="0px"
	 viewBox="0 0 234 72" style="enable-background:new 0 0 234 72;" xml:space="preserve">
<style type="text/css">
	.st0{fill:#FFCC00;}
	.st1{fill:#FFFFFF;}
</style>
<g>
	<g>
		<path d="M85.4,31.2c0,0.4,0,0.8-0.1,1l-0.1,0.3c-0.4,1.7-1,3.1-1.9,4.1c-0.9,1-2,1.7-3.2,2.1s-2.7,0.6-4.3,0.6c-0.2,0-0.4,0-0.7,0
			c-0.3,0-0.5,0-0.7,0c-0.2,0-0.4,0-0.7,0c-0.2,0-0.4,0-0.5,0L72,46.5c0,0.2-0.1,0.3-0.2,0.4c-0.1,0.1-0.3,0.2-0.4,0.2h-2.9
			c-0.1,0-0.2,0-0.3-0.1c-0.1-0.1-0.1-0.2-0.1-0.3v-0.1v0l3.5-19.7c0.1-0.3,0.2-0.5,0.3-0.6c0.2-0.1,0.4-0.2,0.7-0.3
			c1.6-0.3,3.5-0.4,5.7-0.4c2.3,0,4.1,0.4,5.3,1.3c1.3,0.9,1.9,2.2,1.9,3.8V31.2z M81.5,31.2c0-0.9-0.3-1.5-0.9-1.8
			C80,29,79,28.9,77.7,28.9c-0.4,0-0.8,0-1.4,0c-0.6,0-1,0.1-1.2,0.1l-1.2,6.8c0.9,0.1,1.8,0.1,2.6,0.1c1.5,0,2.6-0.3,3.4-0.9
			c0.8-0.6,1.3-1.4,1.5-2.6l0.1-0.3C81.4,31.9,81.5,31.5,81.5,31.2z"/>
		<path d="M92,33.9c-0.8,0-1.5,0.1-2.2,0.2s-1.5,0.3-2.3,0.5c-0.2,0.1-0.4,0.1-0.5,0.1c-0.2,0-0.3-0.1-0.3-0.3c0-0.1,0-0.3,0.1-0.7
			l0.3-1.4c0-0.1,0-0.2,0.1-0.3c0-0.1,0.1-0.2,0.2-0.2c0.1-0.1,0.2-0.1,0.4-0.2c1.7-0.6,3.4-0.8,5.1-0.8c1.6,0,2.9,0.4,3.7,1.1
			c0.9,0.7,1.3,1.7,1.3,3.1c0,0.4,0,0.9-0.1,1.3L96.2,46c0,0.2-0.1,0.3-0.1,0.4c-0.1,0.1-0.2,0.1-0.4,0.2C95,46.8,94.4,46.9,94,47
			c-0.4,0.1-0.9,0.2-1.6,0.2s-1.4,0.1-2.2,0.1c-4,0-6-1.3-6-4c0-0.4,0-0.8,0.1-1.3c0.1-0.8,0.4-1.5,0.7-2.1c0.3-0.6,0.8-1,1.3-1.4
			s1.3-0.6,2.2-0.8c0.9-0.2,1.9-0.3,3.2-0.3h2.2c0.2-1.1,0.3-1.8,0.3-2c0-0.6-0.2-1-0.5-1.2S92.8,33.9,92,33.9z M92.7,44.2l0.8-4.2
			h-2.1c-1.1,0-1.9,0.2-2.4,0.5c-0.5,0.3-0.7,0.9-0.9,1.7c0,0.2-0.1,0.5-0.1,0.7c0,0.6,0.2,1,0.6,1.2s1.1,0.4,2,0.4
			C91.5,44.5,92.2,44.4,92.7,44.2z"/>
		<path d="M104.6,52.8c-0.9,0-1.9-0.1-2.9-0.3c-1-0.2-1.9-0.5-2.5-0.8c-0.3-0.2-0.5-0.4-0.5-0.6v-0.2l0.2-1.3
			c0.1-0.3,0.2-0.5,0.4-0.5c0.1,0,0.2,0,0.3,0c0.7,0.2,1.5,0.3,2.5,0.5c0.9,0.1,1.8,0.2,2.7,0.2c1.1,0,1.9-0.2,2.3-0.6
			c0.5-0.4,0.8-1,0.9-2l0-0.2c-1,0.2-1.9,0.3-2.6,0.3c-1.8,0-3.2-0.4-4.3-1.3c-1.1-0.9-1.6-2.2-1.6-4.1c0-0.6,0-1.2,0.1-1.7l0.4-2.2
			c0.3-1.8,0.8-3.2,1.5-4.2c0.7-1,1.6-1.8,2.6-2.3s2.4-0.7,4-0.7c0.9,0,1.9,0.1,2.9,0.2c1,0.1,1.9,0.3,2.7,0.5
			c0.2,0.1,0.4,0.1,0.5,0.2c0.1,0.1,0.2,0.2,0.2,0.4c0,0,0,0.1,0,0.1s0,0.1,0,0.1l-2.6,14.8c-0.3,1.4-0.6,2.6-1.2,3.4
			s-1.3,1.4-2.2,1.8C107.4,52.7,106.1,52.8,104.6,52.8z M110.3,34.1c-0.3-0.1-0.7-0.1-1.2-0.2c-0.5,0-1-0.1-1.5-0.1
			c-0.8,0-1.4,0.1-1.9,0.4c-0.5,0.3-0.9,0.7-1.2,1.3c-0.3,0.6-0.5,1.4-0.7,2.3l-0.4,2.2c-0.1,0.8-0.2,1.4-0.2,1.8
			c0,0.8,0.2,1.4,0.6,1.7s1,0.6,2,0.6c0.7,0,1.7-0.1,2.8-0.2L110.3,34.1z"/>
		<path d="M129.5,36.4c0,0.5,0,1-0.1,1.5l-0.4,2.3c-0.9,4.8-3.6,7.1-8.1,7.1c-1.2,0-2.3-0.3-3.1-0.8c-0.9-0.5-1.5-1.2-1.9-2.1
			c-0.4-0.9-0.6-1.8-0.6-2.9c0-0.5,0-1,0.1-1.4l0.4-2.3c0.4-2.4,1.3-4.2,2.7-5.3c1.4-1.2,3.2-1.8,5.4-1.8c1.3,0,2.4,0.3,3.2,0.8
			s1.5,1.2,1.9,2C129.3,34.4,129.5,35.3,129.5,36.4z M125.7,36.6c0-0.9-0.2-1.5-0.6-2c-0.4-0.4-1-0.7-1.9-0.7
			c-0.9,0-1.7,0.3-2.4,0.9c-0.7,0.6-1.1,1.6-1.4,3l-0.4,2.3c-0.1,0.4-0.1,0.8-0.1,1.3c0,1.7,0.8,2.6,2.5,2.6c2,0,3.3-1.3,3.7-3.9
			l0.4-2.3C125.7,37.5,125.7,37.1,125.7,36.6z"/>
		<path d="M146.6,26.4C146.6,26.4,146.6,26.4,146.6,26.4c0,0.1,0,0.2,0,0.2l-0.3,1.8c0,0.1-0.1,0.3-0.3,0.4
			c-0.1,0.1-0.3,0.2-0.4,0.2h-5.9c-0.8,0-1.5,0.2-1.8,0.5c-0.4,0.3-0.7,1-0.8,1.9l-0.5,3.1h7.8c0.1,0,0.3,0.1,0.3,0.2
			s0.1,0.2,0.1,0.3v0.1v0l-0.4,2.1c0,0.2-0.1,0.3-0.3,0.4c-0.1,0.1-0.3,0.2-0.4,0.2h-7.8l-0.6,3.7c-0.1,0.4-0.1,0.7-0.1,0.9
			c0,0.6,0.1,1,0.4,1.2c0.3,0.2,0.8,0.3,1.5,0.3h5.9c0.3,0,0.4,0.1,0.4,0.4v0.1v0l-0.3,1.8c0,0.3-0.3,0.5-0.7,0.6
			c-0.2,0-0.5,0.1-0.8,0.1c-0.3,0.1-0.8,0.1-1.4,0.1c-0.6,0-1.1,0.1-1.5,0.1c-0.4,0-1,0-1.9,0c-1.7,0-3.1-0.4-4.1-1.1
			c-1-0.7-1.6-1.9-1.6-3.4c0-0.5,0-0.9,0.1-1.3l1.7-10c0.2-1.3,0.6-2.3,1-3.1c0.5-0.8,1-1.4,1.6-1.8c0.6-0.4,1.4-0.7,2.1-0.8
			s1.7-0.2,2.8-0.2c1.5,0,2.6,0,3.3,0.1c0.7,0.1,1.4,0.2,2.1,0.3C146.4,26,146.6,26.2,146.6,26.4z"/>
		<path d="M158.2,25.6L158.2,25.6l-0.3,1.7c0,0.1-0.1,0.3-0.2,0.4c-0.1,0.1-0.2,0.1-0.3,0.1h-1.3c-0.5,0-0.9,0-1.1,0.1
			c-0.2,0.1-0.4,0.3-0.6,0.5c-0.1,0.2-0.3,0.6-0.3,1.1l-0.3,1.4h2.7c0.3,0,0.5,0.2,0.5,0.5v0.1l-0.3,1.7c0,0.2-0.1,0.3-0.2,0.4
			c-0.1,0.1-0.3,0.2-0.4,0.2h-2.8l-2.4,13.5c-0.2,1.3-0.6,2.3-1.1,2.9c-0.5,0.7-1.1,1.1-1.9,1.3c-0.7,0.2-1.7,0.3-2.8,0.3
			c-0.4,0-1-0.1-1.7-0.2c-0.1,0-0.2-0.1-0.3-0.1c-0.1-0.1-0.1-0.2-0.1-0.3v-0.1l0.3-1.7c0.1-0.3,0.2-0.5,0.5-0.5h1.3
			c0.7,0,1.2-0.1,1.4-0.3c0.3-0.2,0.5-0.7,0.6-1.4l2.4-13.5l-2.5-0.4c-0.3-0.1-0.4-0.2-0.4-0.5v-0.1l0.2-1.3c0-0.2,0.1-0.3,0.2-0.4
			c0.1-0.1,0.3-0.2,0.4-0.2h2.5l0.3-1.4c0.2-1,0.4-1.8,0.8-2.4c0.3-0.6,0.7-1.1,1.2-1.4c0.5-0.3,1-0.5,1.6-0.6
			c0.6-0.1,1.3-0.2,2.2-0.2c0.4,0,1,0.1,1.7,0.2c0.1,0,0.2,0.1,0.3,0.1C158.1,25.4,158.2,25.5,158.2,25.6z"/>
		<path d="M162,47.3c-0.9,0-1.8-0.1-2.5-0.4c-0.7-0.2-1.4-0.6-1.9-1.1c-0.5-0.5-1-1.1-1.2-1.8c-0.3-0.7-0.4-1.5-0.4-2.5
			c0-0.6,0-1.2,0.1-1.7l0.3-1.8c0.5-2.6,1.4-4.5,2.7-5.6c1.4-1.1,3.2-1.7,5.4-1.7c1.8,0,3.2,0.5,4.2,1.6c1,1.1,1.4,2.5,1.4,4.2
			c0,0.5,0,1-0.1,1.6l-0.2,1.4c-0.1,0.5-0.3,0.7-0.7,0.7h-9.4c-0.1,0.7-0.1,1-0.1,1.2c0,0.8,0.2,1.5,0.7,1.9
			c0.5,0.4,1.3,0.7,2.5,0.7c1.5,0,3.1-0.3,5.1-0.9c0.1,0,0.1,0,0.3,0c0.2,0,0.3,0.1,0.3,0.3c0,0.1,0,0.1,0,0.2l-0.3,1.8
			c0,0.2-0.1,0.3-0.2,0.4c-0.1,0.1-0.3,0.2-0.6,0.3c-0.5,0.2-1,0.4-1.5,0.5c-0.5,0.1-1.1,0.3-1.8,0.4
			C163.3,47.3,162.6,47.3,162,47.3z M166.4,36.6c0-0.8-0.2-1.5-0.6-1.9c-0.4-0.4-1-0.7-1.8-0.7c-2,0-3.3,1.2-3.7,3.6h6.1
			C166.4,37.2,166.4,36.8,166.4,36.6z"/>
		<path d="M176.8,47.3c-0.8,0-1.5-0.1-2.2-0.4s-1.2-0.6-1.7-1.1c-0.5-0.5-0.9-1.1-1.1-1.8c-0.3-0.7-0.4-1.4-0.4-2.2
			c0-0.4,0-0.9,0.1-1.5l0.5-2.7c0.3-1.7,0.9-3.1,1.6-4.1c0.7-1,1.6-1.8,2.6-2.2c1-0.4,2.2-0.6,3.4-0.6s2.5,0.3,3.7,0.9
			c0.3,0.2,0.5,0.4,0.5,0.6c0,0,0,0.1,0,0.1c0,0,0,0,0,0.1l-0.3,1.7c0,0.3-0.2,0.5-0.5,0.5c-0.1,0-0.2,0-0.2,0
			c-1.4-0.4-2.5-0.6-3.3-0.6c-1,0-1.8,0.3-2.4,0.8c-0.6,0.6-1,1.5-1.3,2.9l-0.5,2.7c-0.1,0.6-0.1,1.1-0.1,1.4c0,0.8,0.2,1.4,0.6,1.8
			c0.4,0.4,1,0.6,1.9,0.6c0.8,0,2-0.2,3.5-0.7c0.1,0,0.1,0,0.3,0c0.2,0,0.3,0.1,0.3,0.3c0,0.1,0,0.1,0,0.2l-0.3,1.9
			c0,0.2-0.1,0.3-0.2,0.4c-0.1,0.1-0.3,0.2-0.5,0.3c-0.5,0.2-1,0.4-1.7,0.5C178.2,47.3,177.5,47.3,176.8,47.3z"/>
		<path d="M194.8,31.4L194.8,31.4l-0.3,1.8c0,0.1-0.1,0.3-0.3,0.4c-0.1,0.1-0.3,0.2-0.4,0.2h-2.6l-1.6,9c-0.1,0.5-0.1,0.8-0.1,1
			c0,0.2,0.1,0.4,0.2,0.5c0.1,0.1,0.4,0.1,0.8,0.1h1.5c0.3,0,0.5,0.1,0.5,0.3v0.1l-0.3,1.8c-0.1,0.3-0.3,0.5-0.6,0.5
			c-0.8,0.1-1.5,0.2-2,0.2c-1.3,0-2.3-0.2-2.9-0.7c-0.6-0.5-1-1.3-1-2.4c0-0.4,0-0.8,0.1-1.4l1.6-9l-2.6-0.4c-0.3,0-0.5-0.2-0.5-0.5
			v-0.1l0.2-1.3c0-0.2,0.1-0.3,0.2-0.4c0.1-0.1,0.3-0.2,0.4-0.2h2.7l0.4-2.4c0.1-0.3,0.3-0.5,0.7-0.6l2.7-0.5h0.1
			c0.3,0,0.4,0.1,0.4,0.3V28l-0.5,3h2.6c0.1,0,0.3,0,0.3,0.1C194.8,31.2,194.8,31.3,194.8,31.4z"/>
		<path d="M200.3,31.4L200.3,31.4l-2.6,15.1c0,0.2-0.1,0.3-0.3,0.4c-0.1,0.1-0.3,0.2-0.4,0.2h-2.6c-0.1,0-0.2,0-0.3-0.1
			c-0.1-0.1-0.1-0.2-0.1-0.3v-0.1l2.6-15c0-0.2,0.1-0.3,0.2-0.4c0.1-0.1,0.3-0.2,0.4-0.2h2.6C200.2,30.9,200.3,31.1,200.3,31.4z
			 M201.5,25.6L201.5,25.6l-0.5,2.6c0,0.2-0.1,0.3-0.2,0.4c-0.1,0.1-0.3,0.2-0.4,0.2h-2.8c-0.1,0-0.2,0-0.4-0.1
			c-0.1-0.1-0.2-0.2-0.2-0.3v-0.1l0.5-2.5c0-0.1,0.1-0.3,0.3-0.4c0.1-0.1,0.3-0.2,0.4-0.2h2.8C201.3,25.1,201.5,25.3,201.5,25.6z"/>
		<path d="M216.4,31.3c0,0.1,0,0.2-0.1,0.3l-5.9,13c-0.4,1-1,1.7-1.7,2.1c-0.7,0.4-1.5,0.6-2.3,0.6c-1.9,0-2.9-0.9-3.1-2.7l-1.3-13
			v-0.1c0-0.2,0.1-0.3,0.2-0.4s0.2-0.2,0.4-0.2h2.8c0.3,0,0.5,0.2,0.5,0.6l0.6,12c0,0.5,0.2,0.7,0.4,0.7c0.2,0,0.5-0.2,0.7-0.7
			l4.9-12c0.1-0.4,0.4-0.6,0.7-0.6h3C216.3,30.9,216.4,31.1,216.4,31.3z"/>
		<path d="M229.5,36.4c0,0.5,0,1-0.1,1.5l-0.4,2.3c-0.9,4.8-3.6,7.1-8.1,7.1c-1.2,0-2.3-0.3-3.1-0.8c-0.9-0.5-1.5-1.2-1.9-2.1
			c-0.4-0.9-0.6-1.8-0.6-2.9c0-0.5,0-1,0.1-1.4l0.4-2.3c0.4-2.4,1.3-4.2,2.7-5.3c1.4-1.2,3.2-1.8,5.4-1.8c1.3,0,2.4,0.3,3.2,0.8
			s1.5,1.2,1.9,2C229.3,34.4,229.5,35.3,229.5,36.4z M225.7,36.6c0-0.9-0.2-1.5-0.6-2c-0.4-0.4-1-0.7-1.9-0.7
			c-0.9,0-1.7,0.3-2.4,0.9c-0.7,0.6-1.1,1.6-1.4,3l-0.4,2.3c-0.1,0.4-0.1,0.8-0.1,1.3c0,1.7,0.8,2.6,2.5,2.6c2,0,3.3-1.3,3.7-3.9
			l0.4-2.3C225.6,37.5,225.7,37.1,225.7,36.6z"/>
	</g>
	<path class="st0" d="M37.8,15.2c-9.2-5.1-17.5-8-22.2-8c-1.3,0-2.4,0.2-3.1,0.7C8.5,10.5,6,26.2,6.9,42.9
		c0.8,13.3,3.4,20.4,5.6,21.5c4,1.9,18.2-3.5,32.2-12.3C56.7,44.7,62,38.8,62,36.4C62,31.9,51.4,22.6,37.8,15.2z"/>
	<path class="st1" d="M38.9,13.2C34,10.6,17.5,2.1,11.3,6C5.1,10,4,30.3,4.7,43.1c0.4,6.2,1.8,20.9,6.9,23.3
		c0.8,0.4,1.9,0.6,3.1,0.6C22,67,35.3,60.7,46,54c5.5-3.4,18.2-12,18.2-17.6C64.2,30,51.1,19.9,38.9,13.2z M44.8,52.1
		c-14.1,8.8-28.2,14.3-32.2,12.3c-2.2-1.1-4.9-8.1-5.6-21.5C6,26.2,8.5,10.5,12.5,7.9c0.7-0.5,1.8-0.7,3.1-0.7c4.7,0,13,2.9,22.2,8
		C51.4,22.6,62,31.9,62,36.4C62,38.8,56.7,44.7,44.8,52.1z"/>
	<path d="M41.7,24.8c-2.2-1.4-5.4-2.1-9.4-2.1c-3.8,0-7.2,0.2-10.1,0.6c-0.5,0.1-1,0.2-1.3,0.4c-0.3,0.2-0.5,0.5-0.6,0.9l-0.8,3.9
		h11l0.6-3.6l7.2,8.7l-10,8.6l0.6-4H17.7l-3.4,16.6v0V55c0,0.2,0.1,0.4,0.2,0.5c0.1,0.1,0.3,0.2,0.6,0.2h5.1c0.3,0,0.5-0.1,0.7-0.2
		c0.2-0.2,0.4-0.4,0.4-0.6l2.3-10c0.2,0,0.5,0,0.8,0c0.4,0,0.8,0,1.2,0.1c0.4,0,0.8,0,1.3,0.1c0.5,0,0.9,0,1.2,0
		c2.8,0,5.3-0.4,7.5-0.9c6.9-1.4,9.4-8.3,9.4-13.6C45.1,28.1,44,26.1,41.7,24.8z"/>
</g>
</svg>
