<svg id="Capa_1" data-name="Capa 1" xmlns="http://www.w3.org/2000/svg" viewBox="0 0 82 22"><defs><style>.cls-1{fill:#fc0;}.cls-2{fill:#fff;}</style></defs><title>pagoefectivo (1)</title><path d="M30.33,9.38a1.06,1.06,0,0,1,0,.34l0,.1a3,3,0,0,1-.64,1.38,2.4,2.4,0,0,1-1.08.71,4.52,4.52,0,0,1-1.45.21h-.88l-.4,2.43a.16.16,0,0,1-.07.13.28.28,0,0,1-.13.07h-1a.14.14,0,0,1-.14-.14v0h0l1.18-6.65a.5.5,0,0,1,.11-.2.83.83,0,0,1,.23-.1,10,10,0,0,1,1.93-.14,3,3,0,0,1,1.78.44,1.47,1.47,0,0,1,.65,1.28v.17ZM29,9.38a.63.63,0,0,0-.31-.61,1.93,1.93,0,0,0-1-.17h-.47a3.61,3.61,0,0,0-.4,0l-.41,2.29a6.7,6.7,0,0,0,.88,0,1.83,1.83,0,0,0,1.15-.31,1.28,1.28,0,0,0,.5-.87l0-.11C29,9.62,29,9.48,29,9.38Z"/><path d="M32.56,10.29a5.47,5.47,0,0,0-.74.07,6.5,6.5,0,0,0-.78.17.4.4,0,0,1-.17,0c-.07,0-.1,0-.1-.1a1.07,1.07,0,0,1,0-.24l.11-.47a.13.13,0,0,1,0-.1A.08.08,0,0,1,31,9.58s.06,0,.13-.06a4.94,4.94,0,0,1,1.72-.27,1.88,1.88,0,0,1,1.25.37,1.19,1.19,0,0,1,.44,1,2.12,2.12,0,0,1,0,.44L34,14.38c0,.06,0,.1,0,.13s-.06,0-.13.07c-.24.07-.44.1-.58.13a1.81,1.81,0,0,1-.54.07c-.23,0-.47,0-.74,0-1.35,0-2-.44-2-1.35A2.32,2.32,0,0,1,30,13a2.12,2.12,0,0,1,.24-.71,1.41,1.41,0,0,1,.44-.47,1.64,1.64,0,0,1,.74-.27,4.66,4.66,0,0,1,1.08-.11h.74a5.43,5.43,0,0,0,.1-.67.48.48,0,0,0-.17-.41A1.23,1.23,0,0,0,32.56,10.29Zm.24,3.48.27-1.42h-.71a1.63,1.63,0,0,0-.81.17.85.85,0,0,0-.31.57c0,.07,0,.17,0,.24a.43.43,0,0,0,.2.41,1.73,1.73,0,0,0,.68.13A2,2,0,0,0,32.8,13.77Z"/><path d="M36.81,16.67a4.94,4.94,0,0,1-1-.1A3.77,3.77,0,0,1,35,16.3c-.1-.07-.17-.13-.17-.2V16l.07-.44c0-.1.07-.17.13-.17h.1c.24.07.51.1.85.17a7,7,0,0,0,.91.07,1.18,1.18,0,0,0,.78-.2.94.94,0,0,0,.3-.68v-.07a4.57,4.57,0,0,1-.88.11,2.2,2.2,0,0,1-1.45-.44A1.67,1.67,0,0,1,35.09,13a3.44,3.44,0,0,1,0-.57l.14-.74a3.41,3.41,0,0,1,.51-1.42,2.39,2.39,0,0,1,.87-.78A3.12,3.12,0,0,1,38,9.25c.31,0,.64,0,1,.06a6.74,6.74,0,0,1,.91.17c.07,0,.14,0,.17.07a.16.16,0,0,1,.07.13v.07l-.88,5a3.09,3.09,0,0,1-.4,1.15,1.82,1.82,0,0,1-.75.6A3.42,3.42,0,0,1,36.81,16.67Zm1.93-6.31c-.11,0-.24,0-.41-.07l-.51,0a1.22,1.22,0,0,0-.64.13,1,1,0,0,0-.4.44,4,4,0,0,0-.24.78l-.13.74a4.91,4.91,0,0,0-.07.61.7.7,0,0,0,.2.57,1.09,1.09,0,0,0,.68.21c.23,0,.57,0,.94-.07Z"/><path d="M45.22,11.14a2.11,2.11,0,0,1,0,.5l-.13.78a2.57,2.57,0,0,1-2.74,2.4,2.08,2.08,0,0,1-1-.27,1.42,1.42,0,0,1-.64-.71,2.27,2.27,0,0,1-.21-1,1.72,1.72,0,0,1,0-.47l.13-.78a2.79,2.79,0,0,1,.91-1.79,2.7,2.7,0,0,1,1.83-.61,2,2,0,0,1,1.08.27,1.81,1.81,0,0,1,.64.68A3,3,0,0,1,45.22,11.14Zm-1.29.06a1,1,0,0,0-.2-.67.84.84,0,0,0-.64-.24,1.19,1.19,0,0,0-.81.31,1.74,1.74,0,0,0-.47,1l-.14.78a1.94,1.94,0,0,0,0,.43c0,.58.27.88.84.88s1.12-.44,1.25-1.31l.14-.78A.83.83,0,0,0,43.93,11.2Z"/><path d="M51,7.76h0v.07l-.1.61a.19.19,0,0,1-.1.13.37.37,0,0,1-.14.07h-2a.94.94,0,0,0-.61.17,1,1,0,0,0-.27.64l-.17,1h2.64s.1,0,.1.07,0,.07,0,.1v0h0l-.13.71c0,.06,0,.1-.11.13a.21.21,0,0,1-.13.07H47.38l-.21,1.25a1.24,1.24,0,0,0,0,.3c0,.2,0,.34.14.41a1,1,0,0,0,.5.1h2c.1,0,.14,0,.14.13v0h0l-.1.6c0,.11-.1.17-.24.21s-.17,0-.27,0a2,2,0,0,1-.47,0c-.2,0-.37,0-.51,0h-.64a2.43,2.43,0,0,1-1.38-.37,1.35,1.35,0,0,1-.54-1.15,2,2,0,0,1,0-.44l.57-3.38a3.73,3.73,0,0,1,.34-1,2,2,0,0,1,.54-.61A1.81,1.81,0,0,1,48,7.49a7.44,7.44,0,0,1,.95-.07,8.09,8.09,0,0,1,1.11,0l.71.1C50.92,7.63,51,7.69,51,7.76Z"/><path d="M54.9,7.49h0l-.1.57a.21.21,0,0,1-.07.14.12.12,0,0,1-.1,0h-.44a.92.92,0,0,0-.37,0,1,1,0,0,0-.2.17.83.83,0,0,0-.1.37l-.1.47h.91a.16.16,0,0,1,.17.17v0l-.1.58a.19.19,0,0,1-.07.13.27.27,0,0,1-.14.07h-.94l-.81,4.56a2,2,0,0,1-.37,1,1,1,0,0,1-.64.44,3.64,3.64,0,0,1-1,.1,5.56,5.56,0,0,1-.57-.06s-.07,0-.1,0a.1.1,0,0,1,0-.1v0l.1-.58c0-.1.07-.16.17-.16h.44a.69.69,0,0,0,.47-.11c.11-.06.17-.23.21-.47L52,10.22l-.85-.13c-.1,0-.13-.07-.13-.17v0l.07-.44a.2.2,0,0,1,.06-.14.28.28,0,0,1,.14-.06h.84l.1-.48A2.56,2.56,0,0,1,52.47,8a1.12,1.12,0,0,1,.41-.47,1.47,1.47,0,0,1,.54-.2,3.71,3.71,0,0,1,.74-.07,3.77,3.77,0,0,1,.57.07s.07,0,.11,0S54.9,7.46,54.9,7.49Z"/><path d="M56.19,14.82a2.26,2.26,0,0,1-.85-.14,1.58,1.58,0,0,1-.64-.37,1.38,1.38,0,0,1-.4-.61,1.92,1.92,0,0,1-.14-.84,3.57,3.57,0,0,1,0-.58l.11-.6a3.14,3.14,0,0,1,.91-1.89A2.81,2.81,0,0,1,57,9.21a1.82,1.82,0,0,1,1.42.54,2,2,0,0,1,.47,1.42,3.45,3.45,0,0,1,0,.54l-.07.47c0,.17-.1.24-.24.24H55.41a2.89,2.89,0,0,0,0,.4.81.81,0,0,0,.23.65,1.37,1.37,0,0,0,.85.23,6.1,6.1,0,0,0,1.72-.3h.1c.07,0,.1,0,.1.1v.07l-.1.6a.19.19,0,0,1-.07.14.52.52,0,0,1-.2.1,2.54,2.54,0,0,1-.51.17c-.17,0-.37.1-.61.13A1.72,1.72,0,0,1,56.19,14.82Zm1.48-3.62a.94.94,0,0,0-.2-.64.87.87,0,0,0-.61-.23c-.67,0-1.11.4-1.25,1.21h2.06Z"/><path d="M61.18,14.82a1.81,1.81,0,0,1-.74-.14,1.65,1.65,0,0,1-.58-.37,1.52,1.52,0,0,1-.37-.61,1.8,1.8,0,0,1-.13-.74,3.33,3.33,0,0,1,0-.51l.17-.91a3.38,3.38,0,0,1,.54-1.38A2.09,2.09,0,0,1,61,9.41a3.27,3.27,0,0,1,1.15-.2,2.71,2.71,0,0,1,1.24.31c.11.06.17.13.17.2v.07l-.1.57a.16.16,0,0,1-.17.17h-.06a4.2,4.2,0,0,0-1.12-.2,1.22,1.22,0,0,0-.81.27,1.87,1.87,0,0,0-.44,1l-.17.91a3.06,3.06,0,0,0,0,.47.86.86,0,0,0,.2.61.89.89,0,0,0,.64.2,4,4,0,0,0,1.19-.24h.1a.09.09,0,0,1,.1.1v.07l-.1.64c0,.07,0,.1-.07.14a.63.63,0,0,1-.17.1,2.57,2.57,0,0,1-.57.17A3.22,3.22,0,0,1,61.18,14.82Z"/><path d="M67.26,9.45h0l-.11.61a.17.17,0,0,1-.1.13.28.28,0,0,1-.13.07H66l-.54,3a1.72,1.72,0,0,0,0,.33.26.26,0,0,0,.06.17s.14,0,.27,0h.51c.1,0,.17,0,.17.1v0l-.1.61c0,.1-.1.17-.2.17-.27,0-.51.07-.68.07a1.54,1.54,0,0,1-1-.24,1,1,0,0,1-.34-.81,2.12,2.12,0,0,1,0-.47l.54-3-.88-.14a.16.16,0,0,1-.17-.17v0l.07-.44a.14.14,0,0,1,.07-.13A.21.21,0,0,1,64,9.28h.91L65,8.47a.28.28,0,0,1,.23-.2l.92-.17h0c.1,0,.13,0,.13.1v.1l-.16,1h.87s.1,0,.1,0S67.26,9.41,67.26,9.45Z"/><path d="M69.11,9.45h0l-.87,5.1c0,.06,0,.1-.11.13a.28.28,0,0,1-.13.07h-.88a.11.11,0,0,1-.1,0,.12.12,0,0,1,0-.1v0l.87-5.06a.19.19,0,0,1,.07-.14.31.31,0,0,1,.14-.07h.87C69.08,9.28,69.11,9.35,69.11,9.45Zm.41-2h0l-.17.88a.14.14,0,0,1-.07.13.21.21,0,0,1-.13.07h-1a.26.26,0,0,1-.13,0S68,8.47,68,8.44v0l.17-.84a.18.18,0,0,1,.1-.14.25.25,0,0,1,.13-.06h.95C69.45,7.32,69.52,7.39,69.52,7.49Z"/><path d="M74.55,9.41a.13.13,0,0,1,0,.11l-2,4.38a1.35,1.35,0,0,1-.57.71,1.55,1.55,0,0,1-.78.21.92.92,0,0,1-1-.92l-.44-4.38v0a.16.16,0,0,1,.06-.13.17.17,0,0,1,.14-.07h.94c.11,0,.17.07.17.2l.21,4c0,.17.06.24.13.24s.17-.07.24-.24l1.65-4a.25.25,0,0,1,.24-.2h1S74.55,9.35,74.55,9.41Z"/><path d="M79,11.14a2.11,2.11,0,0,1,0,.5l-.13.78a2.56,2.56,0,0,1-2.73,2.4,2.09,2.09,0,0,1-1-.27,1.47,1.47,0,0,1-.64-.71,2.26,2.26,0,0,1-.2-1,2.27,2.27,0,0,1,0-.47l.13-.78a2.76,2.76,0,0,1,.92-1.79,2.67,2.67,0,0,1,1.82-.61,2,2,0,0,1,1.08.27,1.81,1.81,0,0,1,.64.68A3,3,0,0,1,79,11.14Zm-1.28.06a1,1,0,0,0-.21-.67.83.83,0,0,0-.64-.24,1.19,1.19,0,0,0-.81.31,1.8,1.8,0,0,0-.47,1l-.14.78a1.94,1.94,0,0,0,0,.43c0,.58.27.88.84.88s1.12-.44,1.25-1.31l.14-.78A1.38,1.38,0,0,0,77.69,11.2Z"/><path class="cls-1" d="M14.27,4c-3.11-1.72-5.91-2.7-7.5-2.7a1.8,1.8,0,0,0-1,.24c-1.35.87-2.2,6.17-1.89,11.81.27,4.49,1.14,6.89,1.89,7.26,1.35.64,6.14-1.18,10.86-4.15,4.06-2.5,5.84-4.49,5.84-5.3C22.43,9.62,18.86,6.48,14.27,4Z"/><path class="cls-2" d="M14.64,3.31C13,2.43,7.41-.44,5.32.88S2.86,9.08,3.09,13.4c.14,2.09.61,7,2.33,7.86a2.34,2.34,0,0,0,1,.2c2.46,0,7-2.12,10.56-4.38,1.86-1.15,6.15-4,6.15-5.94C23.18,9,18.76,5.57,14.64,3.31Zm2,13.13c-4.76,3-9.52,4.82-10.87,4.15-.74-.37-1.65-2.74-1.89-7.26C3.53,7.69,4.38,2.39,5.73,1.52a1.8,1.8,0,0,1,1-.24c1.59,0,4.39,1,7.5,2.7,4.59,2.5,8.16,5.64,8.16,7.16C22.43,12,20.65,13.94,16.63,16.44Z"/><path d="M15.58,7.22a6,6,0,0,0-3.17-.71A26.32,26.32,0,0,0,9,6.71a1.42,1.42,0,0,0-.44.14.49.49,0,0,0-.2.3L8.09,8.47H11.8L12,7.25l2.43,2.94-3.37,2.9.2-1.35H7.48L6.33,17.35h0v.06a.24.24,0,0,0,.27.24H8.33a.42.42,0,0,0,.23-.07c.07-.06.14-.13.14-.2L9.47,14h.27a1.89,1.89,0,0,1,.41,0,2.38,2.38,0,0,1,.44,0H11a11.18,11.18,0,0,0,2.53-.3c2.33-.47,3.18-2.8,3.18-4.59A2,2,0,0,0,15.58,7.22Z"/></svg>