<svg width="50" height="18" viewBox="0 0 50 18" fill="none" xmlns="http://www.w3.org/2000/svg">
<path d="M21.3924 16.9259H17.4604L19.9233 1.19727H23.8768L21.3924 16.9259Z" fill="#00579F"/>
<path d="M35.7159 1.57561C34.9382 1.26415 33.7068 0.908203 32.1729 0.908203C28.2626 0.908203 25.5189 3.04391 25.4973 6.11399C25.4757 8.38318 27.4632 9.62901 28.9539 10.3854C30.4878 11.164 31.0063 11.6535 31.0063 12.3431C30.9847 13.3887 29.7748 13.8782 28.6298 13.8782C27.0527 13.8782 26.2102 13.6335 24.9139 13.0328L24.3954 12.7881L23.877 16.3253C24.8059 16.7703 26.5126 17.1485 28.2842 17.1707C32.4321 17.1707 35.1326 15.0573 35.1542 11.787C35.1758 9.98496 34.1173 8.62789 31.8272 7.4933C30.4446 6.7814 29.602 6.29196 29.602 5.55781C29.6236 4.89041 30.3149 4.20075 31.8704 4.20075C33.1451 4.15626 34.0956 4.48996 34.8086 4.80142L35.1975 4.97939L35.7159 1.57561Z" fill="#00579F"/>
<path d="M40.9655 11.3641C41.2896 10.452 42.5426 6.95923 42.5426 6.95923C42.521 7.00372 42.8666 6.0471 43.0611 5.44643L43.3419 6.8035C43.3419 6.8035 44.0981 10.5632 44.2493 11.3641C43.6444 11.3641 41.7648 11.3641 40.9655 11.3641ZM45.848 1.19727H42.8018C41.8513 1.19727 41.1383 1.48648 40.7279 2.50984L34.8516 16.9481H38.9995C38.9995 16.9481 39.6909 15.0126 39.8205 14.5899C40.2742 14.5899 44.3141 14.5899 44.8974 14.5899C45.0054 15.1461 45.3727 16.9481 45.3727 16.9481H49.0238L45.848 1.19727Z" fill="#00579F"/>
<path d="M14.1546 1.19727L10.2875 11.9203L9.85546 9.7401C9.14252 7.24844 6.89571 4.51206 4.38965 3.155L7.9327 16.9036H12.1023L18.3242 1.19727H14.1546Z" fill="#00579F"/>
<path d="M6.68006 1.19727H0.328484L0.263672 1.50872C5.23259 2.82129 8.5164 5.95811 9.85585 9.74009L8.47319 2.50983C8.25715 1.50872 7.54422 1.21951 6.68006 1.19727Z" fill="#FAA61A"/>
</svg>
